<svg width="35" height="35" viewBox="0 0 35 35" fill="none" xmlns="http://www.w3.org/2000/svg">
<path d="M20.3719 31.0864C20.0972 31.1605 19.8169 31.2265 19.5387 31.2837C18.8109 31.432 18.3412 32.1422 18.4899 32.87C18.4982 32.9116 18.5086 32.9511 18.5205 32.9909C18.7191 33.6487 19.3901 34.0592 20.0766 33.9191C20.4086 33.8511 20.7433 33.772 21.0713 33.6837C21.7887 33.4908 22.2136 32.7526 22.0206 32.0352C21.8273 31.3168 21.0893 30.8932 20.3719 31.0864Z" fill="white"/>
<path d="M10.9964 30.3374C10.7366 30.2219 10.4775 30.0967 10.2261 29.9652C9.56724 29.6217 8.75506 29.877 8.41151 30.5358C8.24193 30.8598 8.21811 31.2213 8.3161 31.5457C8.41727 31.8803 8.64745 32.1757 8.98137 32.35C9.28147 32.5063 9.58991 32.6558 9.89934 32.7938C10.5774 33.0965 11.3729 32.7926 11.6759 32.1145C11.9789 31.4359 11.6745 30.641 10.9964 30.3374Z" fill="white"/>
<path d="M15.6215 31.5198C15.3386 31.4971 15.0516 31.465 14.7699 31.4254C14.0344 31.3206 13.3538 31.8324 13.2493 32.5679C13.2209 32.7679 13.2383 32.9633 13.2929 33.1445C13.4395 33.6302 13.8566 34.0122 14.3923 34.0886C14.7274 34.1359 15.0685 34.1739 15.4056 34.2008C16.1463 34.2608 16.7948 33.7088 16.8544 32.9686C16.9139 32.228 16.3623 31.5794 15.6215 31.5198Z" fill="white"/>
<path d="M24.704 29.0802C24.4704 29.2409 24.228 29.397 23.984 29.5443C23.4464 29.8682 23.2169 30.5089 23.3899 31.0834C23.4218 31.1887 23.4673 31.2918 23.5266 31.3906C23.9097 32.0269 24.7365 32.2312 25.3728 31.8482C25.6629 31.6732 25.9511 31.4871 26.2289 31.2961C26.8406 30.8749 26.9956 30.0374 26.5744 29.4258C26.1534 28.8135 25.3157 28.6591 24.704 29.0802Z" fill="white"/>
<path d="M29.9912 25.4429C29.3887 25.0085 28.5481 25.1447 28.1136 25.7468C27.9477 25.9772 27.7721 26.2057 27.5922 26.4249C27.2972 26.7852 27.2206 27.2522 27.3454 27.6668C27.4201 27.9136 27.5661 28.1423 27.7804 28.3179C28.355 28.7885 29.2024 28.704 29.673 28.1293C29.8877 27.8676 30.0973 27.5951 30.295 27.3205C30.7296 26.718 30.5936 25.8777 29.9912 25.4429Z" fill="white"/>
<path d="M31.8738 20.5438C31.1609 20.3355 30.4141 20.7451 30.2061 21.4581C30.1262 21.7312 30.0372 22.0055 29.9418 22.273C29.8407 22.5546 29.8392 22.8483 29.9197 23.1143C30.0386 23.5089 30.3364 23.8434 30.7535 23.9928C31.4529 24.2436 32.2226 23.8803 32.4738 23.1813C32.5878 22.8625 32.6938 22.536 32.7882 22.2111C32.9961 21.4985 32.5867 20.7514 31.8738 20.5438Z" fill="white"/>
<path d="M34.3975 11.7808L32.6298 12.33C31.2884 8.21919 28.4639 4.84112 24.6411 2.78949C24.2563 2.58283 23.8659 2.39292 23.4708 2.21841C23.4679 2.21705 23.4656 2.21591 23.463 2.21417C23.4464 2.20719 23.4291 2.20067 23.413 2.19354C19.9276 0.668469 16.0706 0.379366 12.3733 1.38061C12.3443 1.3863 12.3152 1.39176 12.2866 1.39987C12.1631 1.43354 12.0385 1.47002 11.9155 1.50673C11.7137 1.56771 11.5107 1.63338 11.3116 1.70171C11.288 1.70983 11.2657 1.71992 11.2428 1.72902C7.94243 2.87231 5.13187 4.98021 3.12681 7.79661C3.11968 7.80631 3.11164 7.81466 3.10489 7.82429C2.90892 8.09951 2.71909 8.3849 2.53981 8.67279C2.52858 8.69122 2.51925 8.7104 2.50856 8.72944C2.32973 9.01945 2.15788 9.31614 1.99512 9.61874C0.333314 12.7157 -0.300634 16.1761 0.131883 19.5942C0.132868 19.602 0.133779 19.6093 0.134461 19.617C0.135144 19.6225 0.136357 19.6282 0.137646 19.6339C0.255199 20.547 0.448288 21.4572 0.719416 22.3562C1.4314 24.7167 2.61944 26.8392 4.25031 28.6651C4.74501 29.2189 5.59533 29.2667 6.14942 28.772C6.70321 28.2772 6.75152 27.4266 6.25643 26.873C5.44229 25.9619 4.76094 24.9612 4.21557 23.8831C4.20973 23.8698 4.20458 23.8562 4.1982 23.8435C4.06996 23.5891 3.94808 23.3284 3.83523 23.0674C3.83463 23.0653 3.83394 23.0641 3.83303 23.0625C3.62766 22.5821 3.4486 22.0876 3.2951 21.5796C1.53235 15.7349 3.7804 9.61897 8.44556 6.19949C8.51457 6.14928 8.58351 6.09862 8.65321 6.04993C9.85087 5.20522 11.2017 4.5354 12.6802 4.08962C14.168 3.6411 15.6726 3.45271 17.1462 3.49685C17.17 3.49791 17.1931 3.49859 17.2167 3.49928C17.3066 3.50201 17.3963 3.50679 17.4858 3.51179C17.522 3.51369 17.558 3.51566 17.5941 3.51793C22.189 3.80537 26.4261 6.35739 28.8048 10.3667C28.8061 10.3689 28.807 10.3715 28.8086 10.3738C28.8438 10.4333 28.8783 10.4928 28.9128 10.553C28.9169 10.5598 28.9214 10.5658 28.9254 10.5727C29.3805 11.3707 29.7634 12.2248 30.0612 13.1285L28.2937 13.6781C27.8028 13.8306 27.7545 14.1838 28.1853 14.463L32.0318 16.9545C32.4631 17.234 32.9774 17.074 33.1741 16.5999L34.9314 12.3665C35.1278 11.892 34.888 11.6284 34.3975 11.7808Z" fill="white"/>
<path d="M11.7771 17.5365C10.4808 18.4968 9.59666 19.3298 9.12539 20.0355C8.65457 20.741 8.37214 21.4942 8.27939 22.2952H16.3894V20.0918H12.1683C12.4162 19.8481 12.6318 19.6516 12.8155 19.5014C12.9992 19.3504 13.3628 19.0875 13.9072 18.7113C14.8229 18.0654 15.4546 17.4724 15.802 16.9325C16.1492 16.3929 16.3229 15.8266 16.3229 15.2336C16.3229 14.6763 16.1715 14.1729 15.8684 13.7235C15.5651 13.2746 15.149 12.9415 14.6204 12.7247C14.0919 12.5082 13.3517 12.3995 12.4003 12.3995C11.4892 12.3995 10.7759 12.5136 10.2602 12.7418C9.74508 12.9697 9.34547 13.2969 9.06251 13.7235C8.77925 14.151 8.5848 14.7449 8.47839 15.5055L11.1862 15.7245C11.2613 15.1762 11.4086 14.7933 11.6274 14.5766C11.8467 14.3598 12.1283 14.2513 12.4739 14.2513C12.8055 14.2513 13.0811 14.3566 13.2999 14.5668C13.5188 14.7766 13.6285 15.0301 13.6285 15.3267C13.6285 15.6012 13.5179 15.8908 13.2965 16.1963C13.0753 16.5015 12.5687 16.9485 11.7771 17.5365Z" fill="white"/>
<path d="M24.5457 22.2952V20.4767H25.7667V18.3791H24.5457V12.3996H22.1897L17.2654 18.2534V20.4767H22.1897V22.2952H24.5457ZM19.588 18.3791L22.1897 15.3177V18.3791H19.588Z" fill="white"/>
</svg>
