<svg width="230" height="65" viewBox="0 0 230 65" fill="none" xmlns="http://www.w3.org/2000/svg">
<path d="M80.8874 58.5076L68.7428 39.4125C69.0865 39.0687 69.3157 38.6105 69.6594 38.1904C71.1106 36.1663 72.2563 33.913 73.1347 31.4689C73.9367 29.1011 74.3568 26.4277 74.2422 23.8308C74.1277 21.2338 73.5548 18.6751 72.6764 16.3073L71.8744 14.7415C71.6453 14.1686 71.3016 13.634 70.9579 13.0611L70.8433 12.832L70.7287 12.7174L70.4996 12.2591C70.2704 12.03 70.1559 11.6863 69.9267 11.4571L69.3539 10.6551C69.1247 10.426 68.8956 10.1968 68.781 9.85312C67.1006 7.82903 64.962 6.26322 62.8233 4.92656C60.6847 3.70447 58.3169 2.67333 55.9872 2.02409C54.536 1.56581 52.9702 1.2221 51.4808 0.916572C50.5642 0.802001 49.8004 0.57286 48.8838 0.458289C47.6617 0.343718 46.516 0.114572 45.2939 0.114572C44.7211 0.114572 44.0718 0 43.499 0C43.2699 0 43.1553 0 42.9261 0L41.3603 2.48237L10.0061 46.2867C6.75987 47.5088 3.4755 48.6545 0.114746 49.6475C3.81921 49.1892 7.52368 48.54 11.2281 47.8525C14.9326 47.1651 19.3245 46.1722 22.227 45.3702C31.8891 42.6586 39.8709 38.5341 43.2317 36.51C46.4778 34.4859 49.7622 32.2327 52.4355 29.2156C53.7722 27.7644 55.0325 26.084 55.9109 24.0599C56.3691 23.067 56.7129 22.0358 56.9038 21.0429C57.0184 20.8137 57.0184 20.47 57.0184 20.2409C57.0184 20.0117 57.133 19.668 57.133 19.4389C57.133 19.2097 57.2475 18.866 57.2475 18.6369V18.1786V17.8349C57.2475 17.262 57.2475 16.842 57.2475 16.2691C57.2475 16.04 57.2475 15.6962 57.133 15.4671C57.133 15.238 57.133 14.8942 57.0184 14.6651C56.9038 14.0922 56.7892 13.6722 56.6747 13.0993C56.5601 12.5264 56.331 12.1063 56.1018 11.5335C55.1852 9.28026 53.8486 6.72151 50.3733 4.46828C48.3492 3.24619 45.7522 1.64219 44.7593 1.10752C45.8668 1.33667 50.8315 2.21504 53.8486 3.36075C57.0948 4.58284 60.15 6.49236 61.8304 7.86722C67.5589 12.1445 69.0102 17.8731 69.0102 17.8731C69.8122 19.8972 70.1177 22.0358 70.1177 24.0599C70.2323 26.1986 69.8885 28.2227 69.1247 30.2468C68.4373 32.2709 67.4444 34.1804 66.2223 35.9753C65.6494 36.8919 64.8856 37.7703 64.1982 38.5723C63.5107 39.4888 62.7469 40.2526 61.9449 41.0546C60.3791 42.6204 58.6988 44.1863 56.9038 45.6757C55.1089 47.1269 53.3139 48.5018 51.4044 49.7239C50.4878 50.4113 49.4949 50.9459 48.5019 51.5188C47.509 52.0917 46.5924 52.7409 45.5995 53.1992C43.5754 54.1921 41.6659 55.4524 39.6418 56.5599C37.6177 57.6674 35.5936 58.8132 33.4549 59.6915C31.3163 60.6845 29.2922 61.6011 27.039 62.5176C24.9003 63.4342 22.6471 64.198 20.5084 65C25.1294 64.4271 29.7123 63.3196 34.3333 61.983C36.5865 61.2955 38.8398 60.5317 41.0548 59.6152C42.1623 59.1569 43.1935 58.6986 44.301 58.2785H80.811V58.5076H80.8874Z" fill="#666B7E"/>
<path d="M41.322 2.48231L9.8913 46.1721C6.64512 47.3942 3.36075 48.5399 0 49.5328C3.70446 49.0746 7.40893 48.4253 11.1134 47.7379C14.8179 47.0505 19.2098 46.0575 22.1122 45.2555C31.7744 42.544 39.7562 38.4194 43.1169 36.3954C46.3631 34.3713 49.6475 32.118 52.3208 29.101C53.6575 27.6498 54.9177 25.9694 55.7961 23.9453C56.2544 22.9524 56.5981 21.9212 56.7891 20.9283C56.9036 20.6991 56.9036 20.3554 56.9036 20.1263C56.9036 19.8971 57.0182 19.5534 57.0182 19.3243C57.0182 19.0951 57.1328 18.7514 57.1328 18.5223V18.064V17.7203C57.1328 17.1474 57.1328 16.7273 57.1328 16.1545C57.1328 15.9253 57.1328 15.5816 57.0182 15.3525C57.0182 15.1233 57.0182 14.7796 56.9036 14.5505C56.7891 13.9776 56.6745 13.5575 56.5599 12.9847C56.4454 12.4118 56.2162 11.9917 55.9871 11.4189C55.0705 9.16562 53.7338 6.60688 50.2585 4.35364C48.2344 3.13155 45.6375 1.52756 44.6445 0.992891C45.7521 1.22203 50.7168 2.10041 53.7338 3.24612C56.98 4.46821 60.0353 6.37774 61.7156 7.75259C67.4442 12.0299 68.8954 17.7585 68.8954 17.7585C69.6974 19.7825 70.0029 21.9212 70.0029 23.9453C70.1175 26.084 69.7738 28.108 69.01 30.1321C68.3226 32.1562 67.3296 34.0657 66.1075 35.8607C65.5347 36.7773 64.7709 37.6556 64.0834 38.4576C63.396 39.3742 62.6322 40.138 61.8302 40.94C60.2644 42.5058 58.584 44.0716 56.7891 45.561C54.9941 47.0123 53.1992 48.3871 51.2897 49.6092C50.3731 50.2966 49.3801 50.8313 48.3872 51.5187C47.3942 52.0916 46.4777 52.7408 45.4847 53.1991C43.4606 54.1921 41.5511 55.4523 39.527 56.5599C37.5029 57.6674 35.4788 58.6985 33.3402 59.6915C31.2015 60.6844 29.1774 61.601 26.9242 62.5176C25.1293 63.3196 23.2197 63.9688 21.3102 64.6562H22.6469C26.5805 64.0834 30.3995 63.0904 34.2186 61.9447C36.4718 61.2573 38.725 60.4935 40.9401 59.5769C42.0476 59.1186 43.0787 58.6603 44.1862 58.2402H80.8108L68.6663 39.1451C69.01 38.8013 69.2391 38.3431 69.5828 37.923C71.0341 35.8989 72.1798 33.6457 73.0582 31.2015C73.8602 28.7191 74.2803 26.1603 74.1657 23.5634C74.0511 20.9665 73.4783 18.4077 72.5999 16.0399L71.7979 14.8178C71.5687 14.245 71.225 13.7103 70.8813 13.1374L70.7667 12.9083L70.6522 12.7937L70.423 12.3354C70.1939 12.1063 70.0793 11.7626 69.8502 11.5334L69.2773 10.7314C69.0482 10.5023 68.819 10.1586 68.7045 9.92943C67.0241 7.90534 64.8854 6.33954 62.7468 5.00288C60.6081 3.78079 58.2403 2.74965 55.9107 2.10041C54.4595 1.64212 52.8937 1.29841 51.4042 0.992891C50.4877 0.87832 49.7239 0.649179 48.8073 0.534608C47.5852 0.420037 46.4395 0.190891 45.2174 0.190891C44.6445 0.190891 43.9953 0.0763245 43.4224 0.0763245C43.1933 0.0763245 43.0787 0.0763245 42.8496 0.0763245L41.322 2.48231Z" fill="#666B7E"/>
<path d="M162.767 29.3302C163.569 29.3302 164.219 29.101 164.562 28.7573C164.906 28.4136 165.135 27.8407 165.135 27.0769C165.135 26.7332 165.135 26.5041 165.021 26.1604C164.906 25.9312 164.791 25.7021 164.562 25.4729C164.333 25.2438 164.104 25.1292 163.875 25.0146C163.531 24.9001 163.187 24.9001 162.882 24.9001H161.202V29.1774H162.767V29.3302ZM162.767 22.685C163.76 22.685 164.562 22.7996 165.25 23.0288C165.937 23.2579 166.472 23.6016 166.93 23.9453C167.388 24.4036 167.732 24.8619 167.923 25.3965C168.152 25.9694 168.267 26.5041 168.267 27.1915C168.267 27.8789 168.152 28.5282 167.923 29.101C167.694 29.6739 167.35 30.094 166.93 30.5522C166.472 31.0105 165.937 31.2397 165.25 31.4688C164.562 31.698 163.798 31.8125 162.767 31.8125H161.087V36.4336H157.955V22.7232H162.767V22.685Z" fill="#666B7E"/>
<path d="M176.248 31.1251L175.026 27.4206C174.912 27.1915 174.797 26.8478 174.683 26.6186C174.568 26.2749 174.453 25.9312 174.339 25.6257C174.224 25.9694 174.11 26.4277 173.995 26.6186C173.881 26.9624 173.766 27.1915 173.651 27.4206L172.429 31.1251H176.248ZM181.29 36.2808H178.807C178.578 36.2808 178.349 36.1662 178.12 36.0517C178.005 35.9371 177.776 35.7079 177.776 35.5934L176.974 33.2256H171.857L171.055 35.5934C170.94 35.8225 170.825 35.9371 170.711 36.0517C170.482 36.1662 170.253 36.2808 170.023 36.2808H167.541L172.811 22.685H176.057L181.29 36.2808Z" fill="#666B7E"/>
<path d="M191.945 32.8054C192.059 32.8054 192.059 32.8054 192.174 32.8054C192.288 32.8054 192.288 32.92 192.403 32.92L193.625 34.2566C193.052 34.9441 192.403 35.4787 191.601 35.8224C190.799 36.1662 189.806 36.3953 188.698 36.3953C187.705 36.3953 186.789 36.1662 185.872 35.8224C185.07 35.4787 184.421 35.0204 183.734 34.3712C183.161 33.6838 182.741 33.0345 182.397 32.118C182.053 31.2014 181.939 30.323 181.939 29.2919C181.939 28.2989 182.053 27.3824 182.397 26.4658C182.741 25.5492 183.199 24.9 183.734 24.2126C184.307 23.6397 185.07 23.105 185.872 22.7613C186.674 22.4176 187.667 22.1885 188.584 22.1885C189.157 22.1885 189.577 22.1885 190.035 22.303C190.493 22.4176 190.952 22.5322 191.257 22.6468C191.601 22.7613 192.059 22.9905 192.365 23.2196C192.708 23.4488 193.052 23.6779 193.281 23.907L192.288 25.3583C192.174 25.4728 192.174 25.4728 192.059 25.5874C191.945 25.702 191.83 25.702 191.715 25.702C191.601 25.702 191.486 25.702 191.372 25.5874C191.257 25.5874 191.143 25.4728 191.028 25.3583C190.913 25.2437 190.799 25.2437 190.684 25.1291C190.57 25.0146 190.341 25.0146 190.226 24.9C189.997 24.7854 189.768 24.7854 189.539 24.6709C189.309 24.6709 188.966 24.5563 188.622 24.5563C188.049 24.5563 187.629 24.6709 187.171 24.9C186.713 25.1291 186.369 25.3583 186.063 25.8166C185.72 26.1603 185.49 26.6186 185.376 27.1532C185.147 27.7261 185.147 28.2607 185.147 28.9482C185.147 29.6356 185.261 30.2848 185.49 30.8577C185.72 31.4305 185.949 31.8506 186.292 32.1944C186.636 32.5381 186.98 32.8818 187.4 33.1109C187.858 33.3401 188.317 33.4546 188.737 33.4546C189.08 33.4546 189.309 33.4546 189.539 33.4546C189.768 33.4546 189.997 33.3401 190.226 33.3401C190.455 33.2255 190.684 33.2255 190.799 33.1109C191.028 32.9964 191.143 32.8818 191.372 32.6526C191.486 32.5381 191.486 32.5381 191.601 32.5381C191.754 32.8054 191.868 32.8054 191.945 32.8054Z" fill="#666B7E"/>
<path d="M198.361 22.6851H195.229V36.2809H198.361V22.6851Z" fill="#666B7E"/>
<path d="M204.777 25.0529V28.5282H209.36V31.0106H204.777V36.2809H201.492V22.6851H210.276V25.0529H204.777Z" fill="#666B7E"/>
<path d="M215.432 22.6851H212.3V36.2809H215.432V22.6851Z" fill="#666B7E"/>
<path d="M227.462 32.8054C227.576 32.8054 227.576 32.8054 227.691 32.8054C227.805 32.8054 227.805 32.92 227.92 32.92L229.142 34.2566C228.569 34.9441 227.92 35.4787 227.118 35.8224C226.316 36.1662 225.323 36.3953 224.215 36.3953C223.223 36.3953 222.306 36.1662 221.389 35.8224C220.587 35.4787 219.938 35.0204 219.251 34.3712C218.678 33.6838 218.258 33.0345 217.914 32.118C217.57 31.2014 217.456 30.323 217.456 29.2919C217.456 28.2989 217.57 27.3824 217.914 26.4658C218.258 25.5492 218.716 24.9 219.251 24.2126C219.824 23.6397 220.587 23.105 221.389 22.7613C222.191 22.4176 223.184 22.1885 224.101 22.1885C224.674 22.1885 225.094 22.1885 225.552 22.303C226.01 22.4176 226.469 22.5322 226.774 22.6468C227.118 22.7613 227.576 22.9905 227.882 23.2196C228.225 23.4488 228.569 23.6779 228.798 23.907L227.805 25.3583C227.691 25.4728 227.691 25.4728 227.576 25.5874C227.462 25.702 227.347 25.702 227.233 25.702C227.118 25.702 227.003 25.702 226.889 25.5874C226.774 25.5874 226.66 25.4728 226.545 25.3583C226.431 25.2437 226.316 25.2437 226.201 25.1291C226.087 25.0146 225.858 25.0146 225.743 24.9C225.514 24.7854 225.285 24.7854 225.056 24.6709C224.827 24.6709 224.483 24.5563 224.139 24.5563C223.566 24.5563 223.146 24.6709 222.688 24.9C222.23 25.1291 221.886 25.3583 221.58 25.8166C221.237 26.1603 221.008 26.6186 220.893 27.1532C220.664 27.7261 220.664 28.2607 220.664 28.9482C220.664 29.6356 220.778 30.2848 221.008 30.8577C221.237 31.4305 221.466 31.8506 221.809 32.1944C222.153 32.5381 222.497 32.8818 222.917 33.1109C223.375 33.3401 223.834 33.4546 224.254 33.4546C224.597 33.4546 224.827 33.4546 225.056 33.4546C225.285 33.4546 225.514 33.3401 225.743 33.3401C225.972 33.2255 226.201 33.2255 226.316 33.1109C226.545 32.9964 226.66 32.8818 226.889 32.6526C227.003 32.5381 227.003 32.5381 227.118 32.5381C227.233 32.8054 227.347 32.8054 227.462 32.8054Z" fill="#666B7E"/>
<path d="M88.0669 31.1251L86.8448 27.3061C86.7302 27.0769 86.6156 26.7332 86.5011 26.3895C86.3865 26.0458 86.2719 25.7021 86.1574 25.3965C86.0428 25.7403 85.9282 26.1985 85.8137 26.5041C85.6991 26.8478 85.5845 27.0769 85.4699 27.4206L84.2478 31.2397H88.0669V31.1251ZM93.2226 36.3954H90.7402C90.5111 36.3954 90.2819 36.2808 90.0528 36.1662C89.8236 36.0517 89.7091 35.8225 89.7091 35.7079L88.9071 33.3402H83.6368L82.8348 35.7079C82.7202 35.9371 82.6057 36.0517 82.4911 36.1662C82.2619 36.2808 82.0328 36.3954 81.8037 36.3954H79.3213L84.5916 22.5705H87.8377L93.2226 36.3954Z" fill="#666B7E"/>
<path d="M103.458 33.7985V36.3954H95.2466V22.5705H98.3782V33.7985H103.458Z" fill="#666B7E"/>
<path d="M110.981 29.3302C111.783 29.3302 112.432 29.1011 112.776 28.7574C113.12 28.2991 113.349 27.8408 113.349 27.077C113.349 26.7333 113.349 26.5041 113.234 26.1604C113.12 25.9313 113.005 25.7021 112.776 25.473C112.547 25.2439 112.318 25.1293 112.088 25.0147C111.745 24.9001 111.401 24.9001 111.095 24.9001H109.415V29.292H110.981V29.3302ZM110.981 22.5705C111.974 22.5705 112.776 22.6851 113.463 22.9142C114.151 23.1434 114.685 23.4871 115.144 23.8308C115.602 24.2891 115.946 24.7474 116.137 25.282C116.328 25.8167 116.48 26.3896 116.48 27.077C116.48 27.7644 116.366 28.4136 116.137 28.9865C115.907 29.5594 115.564 30.094 115.144 30.4377C114.685 30.896 114.151 31.2397 113.463 31.4307C112.776 31.6598 111.898 31.7744 110.981 31.7744H109.301V36.3954H106.169V22.5705H110.981Z" fill="#666B7E"/>
<path d="M122.324 22.5705H119.078V36.3954H122.324V22.5705Z" fill="#666B7E"/>
<path d="M137.943 22.5705V36.3954H136.263C136.034 36.3954 135.805 36.3954 135.576 36.2809C135.461 36.1663 135.232 36.0517 135.117 35.8226L128.587 27.6117C128.587 27.8408 128.587 28.0699 128.587 28.2991C128.587 28.5282 128.587 28.7574 128.587 28.9865V36.3954H125.761V22.5705H127.441C127.556 22.5705 127.67 22.5705 127.785 22.5705C127.899 22.5705 128.014 22.5705 128.014 22.6851C128.129 22.6851 128.129 22.7997 128.243 22.7997C128.358 22.9142 128.358 22.9142 128.472 23.0288L135.003 31.3543C135.003 31.1252 135.003 30.7815 134.888 30.5523C134.888 30.3232 134.888 30.094 134.888 29.8649V22.5705H137.943Z" fill="#666B7E"/>
<path d="M144.665 25.0529V28.2991H149.057V30.6669H144.665V33.9131H150.394V36.3954H141.534V22.5705H150.394V25.0529H144.665Z" fill="#666B7E"/>
<path d="M86.5014 41.8949H83.7898V49.4184H82.1095V41.8949H79.3979V40.5582H86.5014V41.8949Z" fill="#666B7E"/>
<path d="M94.4829 44.9119C94.4829 44.4536 94.3684 43.9953 94.2538 43.5752C94.1392 43.2315 93.9101 42.8878 93.6809 42.5823C93.4518 42.3531 93.1081 42.124 92.7644 41.8948C92.4207 41.7803 91.9624 41.6657 91.6569 41.6657C91.1986 41.6657 90.8549 41.7803 90.5493 41.8948C90.2056 42.0094 89.8619 42.2386 89.6328 42.5823C89.4036 42.8114 89.1745 43.1551 89.0599 43.5752C88.9453 43.9189 88.8308 44.3772 88.8308 44.9119C88.8308 45.3702 88.9453 45.8285 89.0599 46.2485C89.1745 46.5923 89.4036 46.936 89.6328 47.2415C89.8619 47.4706 90.2056 47.6998 90.5493 47.9289C90.893 48.0435 91.3513 48.1581 91.6569 48.1581C92.1151 48.1581 92.4588 48.0435 92.7644 47.9289C93.1081 47.8143 93.4518 47.5852 93.6809 47.2415C93.9101 47.0124 94.1392 46.6686 94.2538 46.2485C94.4829 45.943 94.4829 45.4847 94.4829 44.9119ZM96.1633 44.9119C96.1633 45.5993 96.0487 46.134 95.8196 46.7068C95.5905 47.2797 95.2467 47.6998 94.903 48.1581C94.4448 48.6163 93.9865 48.8455 93.4518 49.151C92.879 49.3802 92.3443 49.4947 91.6569 49.4947C90.9694 49.4947 90.4348 49.3802 89.8619 49.151C89.289 48.9219 88.869 48.5782 88.4107 48.1581C87.9524 47.6998 87.7232 47.2415 87.4941 46.7068C87.265 46.134 87.1504 45.5993 87.1504 44.9119C87.1504 44.2245 87.265 43.6898 87.4941 43.1169C87.7232 42.5441 88.067 42.124 88.4107 41.6657C88.869 41.2074 89.3272 40.9783 89.8619 40.6728C90.4348 40.4436 90.9694 40.329 91.6569 40.329C92.1151 40.329 92.5734 40.329 92.879 40.4436C93.3372 40.5582 93.6809 40.6728 93.9865 40.9019C94.3302 41.131 94.6739 41.3602 94.903 41.5893C95.1322 41.8185 95.3613 42.1622 95.5905 42.5059C95.8196 42.8496 95.9342 43.1933 96.0487 43.6134C96.1633 44.1481 96.1633 44.6064 96.1633 44.9119Z" fill="#666B7E"/>
<path d="M101.663 48.0816C102.006 48.0816 102.235 48.0816 102.579 47.967C102.808 47.8524 103.037 47.7379 103.267 47.5087C103.496 47.2796 103.61 47.0504 103.725 46.8213C103.839 46.5922 103.839 46.2485 103.839 45.9047V40.5199H105.52V45.9047C105.52 46.4776 105.405 46.8977 105.291 47.356C105.061 47.8143 104.832 48.158 104.489 48.4635C104.145 48.8072 103.801 49.0363 103.381 49.2655C102.923 49.4946 102.388 49.4946 101.815 49.4946C101.242 49.4946 100.708 49.3801 100.25 49.2655C99.7912 49.0363 99.3329 48.8072 99.142 48.4635C98.7983 48.1198 98.5691 47.7761 98.34 47.356C98.1108 46.8977 98.1108 46.4394 98.1108 45.9047V40.5199H99.7912V45.9047C99.7912 46.2485 99.7912 46.5922 99.9058 46.8213C100.02 47.0504 100.135 47.3942 100.364 47.5087C100.593 47.7379 100.708 47.8524 101.052 47.967C100.975 48.0816 101.319 48.0816 101.663 48.0816Z" fill="#666B7E"/>
<path d="M110.179 44.7209C110.523 44.7209 110.752 44.7209 110.981 44.6063C111.21 44.4917 111.439 44.3771 111.554 44.2626C111.668 44.148 111.783 43.9189 111.898 43.8043C112.012 43.5752 112.012 43.346 112.012 43.1169C112.012 42.6586 111.898 42.3149 111.554 42.1239C111.21 41.933 110.752 41.7802 110.217 41.7802H109.224V44.6827H110.179V44.7209ZM114.456 49.4183H113.005C112.661 49.4183 112.547 49.3037 112.432 49.0746L110.523 46.1721C110.408 46.0575 110.408 45.943 110.294 45.943C110.179 45.943 110.064 45.8284 109.95 45.8284H109.262V49.4183H107.582V40.4435H110.294C110.866 40.4435 111.401 40.5581 111.859 40.6727C112.318 40.7873 112.661 41.0164 112.967 41.2455C113.196 41.4747 113.425 41.7038 113.54 42.0475C113.654 42.3913 113.769 42.735 113.769 43.0405C113.769 43.346 113.769 43.6133 113.654 43.9571C113.54 44.1862 113.425 44.5299 113.311 44.6445C113.196 44.8736 112.967 45.1028 112.738 45.2173C112.509 45.3319 112.165 45.5611 111.936 45.5611C112.05 45.6756 112.165 45.6756 112.279 45.7902C112.394 45.9048 112.509 46.0193 112.509 46.1339L114.456 49.4183Z" fill="#666B7E"/>
<path d="M117.473 40.5582H115.793V49.5329H117.473V40.5582Z" fill="#666B7E"/>
<path d="M127.365 40.5581V49.5329H126.448C126.334 49.5329 126.219 49.5328 126.105 49.4183C125.99 49.4183 125.875 49.3037 125.875 49.1891L121.254 43.2314C121.254 43.4606 121.254 43.8043 121.254 44.0334V49.4183H119.803V40.4435H120.72C120.834 40.4435 120.834 40.4435 120.949 40.4435H121.063C121.063 40.4435 121.178 40.4435 121.178 40.5581L121.293 40.6727L126.028 46.6304C126.028 46.5158 126.028 46.2867 126.028 46.1721C126.028 46.0575 126.028 45.943 126.028 45.8284V40.4435H127.365V40.5581Z" fill="#666B7E"/>
<path d="M137.027 44.9118V48.5017C136.569 48.8454 136.111 49.0745 135.576 49.3037C135.003 49.4183 134.583 49.5328 133.895 49.5328C133.208 49.5328 132.559 49.4183 131.871 49.1891C131.299 48.96 130.764 48.6162 130.42 48.2725C129.962 47.8143 129.618 47.356 129.427 46.8213C129.198 46.2485 129.083 45.7138 129.083 45.0264C129.083 44.3389 129.198 43.8043 129.427 43.2314C129.656 42.6586 130 42.2385 130.344 41.7802C130.802 41.3219 131.26 41.0928 131.795 40.8636C132.368 40.6345 133.017 40.5199 133.705 40.5199C134.048 40.5199 134.392 40.5199 134.697 40.6345C135.041 40.749 135.27 40.749 135.614 40.8636C135.843 40.9782 136.187 41.0927 136.416 41.2073C136.645 41.3219 136.874 41.551 136.989 41.6656L136.531 42.4676C136.416 42.5822 136.301 42.6968 136.187 42.6968C136.072 42.6968 135.958 42.6967 135.843 42.5822C135.729 42.4676 135.614 42.4676 135.385 42.353C135.27 42.2385 135.041 42.2385 134.927 42.1239C134.812 42.0093 134.583 42.0093 134.354 42.0093C134.125 42.0093 133.895 42.0093 133.666 42.0093C133.208 42.0093 132.864 42.1239 132.444 42.2385C132.101 42.353 131.757 42.5822 131.528 42.9259C131.299 43.155 131.069 43.4987 130.955 43.9188C130.84 44.2626 130.726 44.7208 130.726 45.2555C130.726 45.8284 130.84 46.2484 130.955 46.5922C131.069 47.0504 131.299 47.3942 131.528 47.5851C131.757 47.8143 132.101 48.0434 132.521 48.2725C132.864 48.3871 133.323 48.5017 133.743 48.5017C134.086 48.5017 134.43 48.5017 134.659 48.3871C134.888 48.2725 135.232 48.2725 135.461 48.0434V46.4776H134.354C134.239 46.4776 134.125 46.4776 134.125 46.363C134.01 46.2484 134.01 46.2485 134.01 46.1339V44.9118H137.027Z" fill="#666B7E"/>
<path d="M145.123 44.7209C145.467 44.7209 145.696 44.7209 145.925 44.6063C146.154 44.4917 146.384 44.3771 146.498 44.2626C146.613 44.148 146.727 43.9189 146.842 43.8043C146.956 43.5752 146.956 43.346 146.956 43.1169C146.956 42.6586 146.842 42.3149 146.498 42.1239C146.154 41.8948 145.696 41.7802 145.161 41.7802H144.169V44.6827H145.123V44.7209ZM149.401 49.4183H147.949C147.606 49.4183 147.491 49.3037 147.377 49.0746L145.467 46.1721C145.352 46.0575 145.352 45.943 145.238 45.943C145.123 45.943 145.009 45.8284 144.894 45.8284H144.207V49.4183H142.526V40.4435H145.238C145.811 40.4435 146.345 40.5581 146.804 40.6727C147.262 40.7873 147.606 41.0164 147.911 41.2455C148.14 41.4747 148.369 41.7038 148.484 42.0475C148.599 42.3913 148.713 42.735 148.713 43.0405C148.713 43.346 148.713 43.6133 148.599 43.9571C148.484 44.1862 148.369 44.5299 148.255 44.6445C148.14 44.8736 147.911 45.1028 147.682 45.2173C147.453 45.3319 147.109 45.5611 146.88 45.5611C146.995 45.6756 147.109 45.6756 147.224 45.7902C147.338 45.9048 147.453 46.0193 147.453 46.1339L149.401 49.4183Z" fill="#666B7E"/>
<path d="M157.383 44.9118C157.383 44.4535 157.268 43.9953 157.153 43.5752C157.039 43.2314 156.81 42.8877 156.581 42.5822C156.351 42.3531 156.008 42.1239 155.664 41.8948C155.32 41.7802 154.862 41.6656 154.557 41.6656C154.098 41.6656 153.755 41.7802 153.449 41.8948C153.105 42.0094 152.762 42.2385 152.532 42.5822C152.303 42.8114 152.074 43.1551 151.96 43.5752C151.845 43.9189 151.73 44.3772 151.73 44.9118C151.73 45.3701 151.845 45.8284 151.96 46.2485C152.074 46.5922 152.303 46.9359 152.532 47.2414C152.762 47.4706 153.105 47.6997 153.449 47.9289C153.793 48.0434 154.251 48.158 154.557 48.158C155.015 48.158 155.359 48.0434 155.664 47.9289C156.008 47.8143 156.351 47.5852 156.581 47.2414C156.81 47.0123 157.039 46.6686 157.153 46.2485C157.383 45.943 157.383 45.4847 157.383 44.9118ZM159.063 44.9118C159.063 45.5992 158.948 46.1339 158.719 46.7068C158.49 47.2796 158.146 47.6997 157.803 48.158C157.344 48.6163 156.886 48.8454 156.351 49.151C155.779 49.3801 155.244 49.4947 154.557 49.4947C153.869 49.4947 153.334 49.3801 152.762 49.151C152.189 48.9218 151.769 48.5781 151.31 48.158C150.852 47.6997 150.623 47.2414 150.394 46.7068C150.165 46.1339 150.05 45.5992 150.05 44.9118C150.05 44.2244 150.165 43.6897 150.394 43.1169C150.623 42.544 150.967 42.1239 151.31 41.6656C151.769 41.2074 152.227 40.9782 152.762 40.6727C153.334 40.4435 153.869 40.329 154.557 40.329C155.015 40.329 155.473 40.329 155.779 40.4435C156.237 40.5581 156.581 40.6727 156.886 40.9018C157.23 41.131 157.574 41.3601 157.803 41.5893C158.032 41.8184 158.261 42.1621 158.49 42.5058C158.719 42.8495 158.834 43.1933 158.948 43.6134C159.063 44.148 159.063 44.6063 159.063 44.9118Z" fill="#666B7E"/>
<path d="M164.562 48.0816C164.906 48.0816 165.135 48.0816 165.479 47.967C165.708 47.8524 165.937 47.7379 166.166 47.5087C166.396 47.2796 166.51 47.0504 166.625 46.8213C166.739 46.5922 166.739 46.2485 166.739 45.9047V40.5199H168.42V45.9047C168.42 46.4776 168.305 46.8977 168.191 47.356C167.961 47.8143 167.732 48.158 167.389 48.4635C167.045 48.8072 166.701 49.0363 166.281 49.2655C165.823 49.4946 165.288 49.4946 164.715 49.4946C164.142 49.4946 163.608 49.3801 163.149 49.2655C162.691 49.0363 162.233 48.8072 162.042 48.4635C161.698 48.1198 161.469 47.7761 161.24 47.356C161.011 46.8977 161.011 46.4394 161.011 45.9047V40.5199H162.691V45.9047C162.691 46.2485 162.691 46.5922 162.806 46.8213C162.92 47.0504 163.035 47.3942 163.264 47.5087C163.493 47.7379 163.608 47.8524 163.951 47.967C163.875 48.0816 164.219 48.0816 164.562 48.0816Z" fill="#666B7E"/>
<path d="M176.668 41.8949H173.995V49.4184H172.315V41.8949H169.603V40.5582H176.668V41.8949Z" fill="#666B7E"/>
<path d="M179.839 41.7803V44.2627H182.97V45.5993H179.839V48.0817H183.887V49.4184H178.273V40.5582H183.887V41.7803H179.839Z" fill="#666B7E"/>
</svg>
