<svg width="241" height="65" viewBox="0 0 241 65" fill="none" xmlns="http://www.w3.org/2000/svg">
<path d="M0.0802464 42.1297C0.24074 41.4877 0.441358 40.8056 0.521605 40.1636C0.802469 38.2377 1.56481 36.4723 2.52778 34.8673C3.45062 33.3828 4.65432 32.1389 6.09876 31.0957C8.30555 29.4908 10.713 29.1297 13.2809 29.4507C14.4444 29.6112 15.608 29.8519 16.6914 30.2531C18.0556 30.7748 19.2593 31.6173 20.2623 32.7408C21.466 34.0649 22.1883 35.5896 22.5093 37.3149C22.5093 37.3951 22.5093 37.4754 22.5093 37.6359C21.9074 37.1143 21.3858 36.5525 20.7839 36.1112C19.7407 35.3488 18.6975 34.5865 17.6142 33.8643C16.1698 32.9013 14.5247 32.5001 12.7994 32.3797C11.1543 32.2994 9.5895 32.6204 8.22531 33.5433C7.14197 34.3056 6.33951 35.3488 5.65741 36.5124C3.89197 39.5618 3.65123 42.892 3.97222 46.3025C4.17284 48.3488 4.81481 50.2346 5.8179 51.9599C6.41975 52.963 7.06173 54.0062 8.14506 54.6482C8.42593 54.8087 8.70679 54.9692 9.02778 55.0494C10.392 55.4507 11.7963 55.7717 13.2407 55.4507C14.5247 55.1698 15.8086 54.8488 16.9722 54.1266C18.2963 53.3241 19.5401 52.4414 20.5833 51.318C21.1852 50.6359 21.787 49.9538 22.4691 49.2315C22.3086 50.5957 21.9877 51.7994 21.3858 52.9229C20.9444 53.6852 20.5432 54.5278 19.9815 55.1698C19.2994 55.9723 18.537 56.6945 17.6944 57.2562C15.2469 58.8612 12.5185 59.2223 9.66975 58.7809C8.46605 58.5803 7.30247 58.1389 6.21913 57.4568C4.97531 56.6945 3.9321 55.7315 3.08951 54.5679C2.24691 53.3642 1.48457 52.1204 1.12346 50.676C0.722222 49.1112 0.361111 47.5062 0 45.9013V42.1297H0.0802464Z" fill="#666B7E"/>
<path d="M226.015 26.2006C225.614 27.645 225.253 29.0895 224.812 30.6543C230.349 30.4938 235.645 29.5709 240.741 27.8456C240.741 27.8858 240.781 27.966 240.781 28.0061C240.139 28.287 239.537 28.608 238.895 28.8487C237.731 29.2901 236.568 29.7716 235.364 30.1728C234.281 30.5339 233.197 30.895 232.114 31.1357C229.827 31.6172 227.5 32.0185 225.173 32.4197C223.488 32.7006 221.762 32.8209 220.077 33.0216C214.66 33.6635 209.204 33.5432 203.747 33.503C201.299 33.4629 198.892 33.1419 196.484 32.9814C195.562 32.9012 194.679 32.8209 193.796 32.7006C192.592 32.4999 191.389 32.2592 190.145 32.0185C188.54 31.6975 186.935 31.4166 185.33 31.0956C183.966 30.8148 182.642 30.5339 181.278 30.253C180.596 30.1327 179.913 30.0524 179.271 29.932C176.784 29.5308 174.296 29.2098 171.849 28.6882C169.762 28.2469 167.676 28.3271 165.549 28.1265C162.54 27.8857 159.531 28.2469 156.521 28.5277C154.315 28.7283 152.148 29.2098 150.021 29.8919C148.015 30.5339 145.969 31.0154 143.963 31.5771C143.923 31.5771 143.883 31.5771 143.762 31.537C144.204 31.3364 144.605 31.1358 145.006 30.9753C147.333 30.0123 149.66 29.0493 152.028 28.1666C152.91 27.8055 153.873 27.6049 154.836 27.4043C156.441 27.0432 158.006 26.7222 159.611 26.4413C160.935 26.2407 162.339 26.1604 163.663 26C167.234 25.5185 170.805 25.5987 174.376 25.6388C176.383 25.679 178.349 25.9197 180.355 26.0401C181.318 26.1203 182.281 26.1604 183.244 26.2808C185.21 26.5617 187.176 26.9228 189.182 27.2438C191.068 27.5246 192.994 27.8055 194.879 28.1265C196.284 28.3672 197.688 28.6882 199.092 28.8888C201.219 29.2098 203.386 29.4907 205.512 29.7314C208.04 30.0123 210.608 30.2932 213.136 30.574C213.577 30.6141 214.058 30.574 214.54 30.4938C213.336 29.6913 212.173 28.929 211.531 27.5648C216.466 28.7685 221.2 28.0061 225.815 26.1604C225.935 26.1203 225.975 26.1604 226.015 26.2006Z" fill="#666B7E"/>
<path d="M114.753 46.5833C114.312 46.7438 113.991 46.9043 113.63 47.0246C111.784 47.6265 109.898 48.108 108.053 48.7901C106.969 49.1913 105.966 49.8333 105.003 50.5154C104.04 51.2376 103.759 53.4845 104.441 54.4475C105.284 55.5709 106.448 56.2129 107.812 56.253C109.818 56.3333 111.583 55.7314 113.108 54.4074C113.87 53.7654 114.633 53.003 114.673 52.0401C114.833 50.2746 114.753 48.4691 114.753 46.5833ZM115.355 55.9321C114.753 56.3734 114.272 56.9351 113.67 57.1759C111.503 58.0185 109.336 59.0617 106.929 58.8611C104.843 58.7006 103.157 57.7376 101.954 56.0123C100.991 54.6882 100.75 53.2438 101.031 51.6388C101.272 50.2746 102.034 49.2314 103.077 48.3888C104.642 47.145 106.448 46.3425 108.414 45.8611C109.738 45.5401 111.022 45.179 112.306 44.7777C112.988 44.5771 113.67 44.2561 114.312 43.895C114.553 43.7746 114.753 43.4537 114.793 43.1728C114.914 41.8487 114.312 40.3642 113.068 39.6419C111.824 38.8796 110.46 38.5185 109.015 38.7592C107.531 39.0401 106.207 39.6821 105.003 40.645C103.679 41.6882 102.596 43.0123 101.593 44.3364C101.432 44.537 101.312 44.8179 101.031 45.0586C101.031 44.858 101.031 44.6975 101.031 44.4969C101.071 42.0493 102.154 40.0833 103.92 38.4784C106.448 36.1913 109.457 35.8302 112.586 36.5925C114.593 37.074 116.318 38.2777 117.281 40.1635C117.682 40.9259 117.923 41.8487 117.923 42.6913C118.003 46.3827 117.963 50.0339 117.963 53.7253C117.963 54.287 117.963 54.8487 118.404 55.3302C118.926 55.9321 119.769 55.932 120.33 55.3703C120.892 54.8086 121.534 54.287 122.256 53.645C121.975 54.8086 121.293 55.5709 120.732 56.3333C120.21 57.0555 119.648 57.6975 118.765 58.0185C117.883 58.3395 117.12 58.2191 116.478 57.4567C116.157 57.0555 115.917 56.6141 115.636 56.1728C115.475 56.1327 115.355 55.9722 115.355 55.9321Z" fill="#666B7E"/>
<path d="M37.9166 46.9043C37.6358 46.9845 37.4352 47.0246 37.2747 47.0647C36.1913 47.3857 35.1481 47.787 34.0648 48.0277C32.2592 48.4289 30.6142 49.111 29.0494 50.0339C27.9259 50.716 27.2438 51.7191 27.2438 53.003C27.2037 54.5277 28.4074 55.932 29.8919 56.253C32.4197 56.7746 34.6666 56.0925 36.5524 54.4073C37.2345 53.8055 37.8765 53.0431 37.9166 52.0401C37.9568 50.395 37.9166 48.7098 37.9166 46.9043ZM24.3148 45.2191C24.1543 43.8147 24.5154 42.611 25.1173 41.4876C25.5987 40.6049 26.2808 39.8024 26.8827 38.9598C27.5648 37.9968 28.608 37.4351 29.6913 37.0339C31.2561 36.4722 32.8611 36.2314 34.5061 36.5524C36.5524 36.9536 38.4382 37.7561 39.8024 39.5617C40.6852 40.7252 41.0061 42.0092 41.0061 43.3734C41.0061 46.9043 41.0061 50.4351 41.0463 53.966C41.0463 54.5277 41.2068 55.1697 41.5277 55.5709C42.0494 56.253 42.9722 56.0925 43.6543 55.4104C44.1759 54.8888 44.7376 54.4073 45.2994 53.9259C45.3395 53.966 45.4197 54.0061 45.4598 54.0462C45.0185 54.7283 44.6574 55.4907 44.1759 56.1327C43.6142 56.8148 43.0123 57.4968 42.2901 58.0586C40.9259 59.1419 39.7222 58.1789 39.1203 57.1759C38.8796 56.8147 38.679 56.4135 38.4784 56.0123C37.716 57.1357 36.5926 57.537 35.3889 57.8981C34.3055 58.2191 33.2623 58.7006 32.179 58.9012C30.2129 59.2623 28.287 59.0617 26.6419 57.8178C24.7561 56.3734 23.8333 54.5277 24.1543 52.0802C24.395 50.3147 25.4784 49.1512 26.8426 48.1882C28.4475 47.0246 30.2932 46.4228 32.2191 45.9413C33.8642 45.5401 35.4691 44.9382 37.074 44.4166C37.8364 44.1759 38.037 43.8147 37.9969 43.0123C37.9568 41.608 36.9537 40.0833 35.4691 39.4814C34.2654 38.9999 33.1419 38.8796 31.9382 39.1203C30.6944 39.361 29.571 39.8826 28.608 40.7252C27.5648 41.6882 26.5216 42.6512 25.5185 43.6543C25.0771 44.0956 24.7561 44.6172 24.3148 45.2191Z" fill="#666B7E"/>
<path d="M153.432 46.5432C152.951 46.7439 152.59 46.9445 152.188 47.0648C150.303 47.6667 148.377 48.1883 146.531 48.8303C145.367 49.2315 144.324 49.7932 143.441 50.7161C142.719 51.4784 142.438 53.1235 142.799 53.9661C143.562 55.571 144.926 56.2531 146.611 56.2932C148.778 56.3334 150.704 55.571 152.228 54.0062C152.75 53.4445 153.312 52.6821 153.392 51.9599C153.553 50.1945 153.432 48.429 153.432 46.5432ZM139.63 45.0185C139.549 42.7716 140.272 40.8858 141.756 39.2006C142.88 37.9568 144.204 37.0741 145.728 36.6328C146.932 36.2716 148.256 36.3118 149.54 36.3519C151.627 36.4321 153.472 37.3149 154.877 38.8395C156 40.0432 156.522 41.5679 156.522 43.2932C156.482 46.8642 156.482 50.4352 156.522 54.0463C156.522 54.5278 156.762 55.0895 157.003 55.5309C157.284 56.0124 158.247 56.0124 158.728 55.571C159.33 55.0494 159.932 54.5278 160.534 53.9661C160.614 53.926 160.695 53.8858 160.935 53.7655C160.293 54.9692 159.772 56.0525 158.889 56.8951C158.367 57.4167 157.886 57.9383 157.164 58.179C156.522 58.4198 155.639 58.2593 155.238 57.7377C154.756 57.1358 154.355 56.4939 153.914 55.8519C152.991 57.2161 151.386 57.4568 149.901 58.0185C148.537 58.5402 147.133 58.9414 145.648 58.8611C144.083 58.7809 142.719 58.179 141.556 57.176C139.63 55.4506 139.188 53.284 139.83 50.8365C140.111 49.713 140.914 49.0309 141.756 48.3488C143.281 47.0648 145.127 46.3828 147.053 45.9013C148.377 45.5803 149.661 45.2192 150.945 44.8179C151.627 44.5772 152.309 44.2562 152.951 43.8951C153.593 43.534 153.553 42.892 153.352 42.2902C153.111 41.5278 152.87 40.7655 152.269 40.1235C151.225 39.0803 148.497 38.3982 147.093 38.8797C146.049 39.2408 145.046 39.5618 144.164 40.2439C143.401 40.8457 142.639 41.4877 141.957 42.2099C141.114 43.0926 140.392 44.0957 139.63 45.0185Z" fill="#666B7E"/>
<path d="M186.173 45.5C185.972 44.7778 185.812 44.176 185.611 43.534C185.21 42.3704 184.608 41.2871 183.725 40.4445C182.361 39.1605 180.676 38.6389 178.83 39.1204C177.827 39.3611 176.944 39.8828 176.302 40.6852C175.781 41.3272 175.219 41.9692 174.858 42.6914C174.457 43.534 174.216 44.497 173.895 45.5H186.173ZM189.503 48.2284H188.66C183.926 48.2284 179.231 48.2284 174.497 48.2284C173.735 48.2284 173.694 48.2284 173.895 48.9908C174.096 49.9537 174.296 50.9568 174.617 51.8797C175.219 53.6451 176.302 55.0494 178.108 55.7716C180.034 56.5741 181.92 56.3334 183.725 55.5309C185.651 54.6883 187.336 53.4044 188.861 51.8797C188.62 52.5216 188.42 53.2037 188.099 53.8056C187.698 54.5278 187.256 55.25 186.694 55.8519C186.012 56.5741 185.25 57.2963 184.407 57.7778C182.923 58.6204 181.238 59.0618 179.472 58.8611C177.707 58.7007 176.102 58.1389 174.698 56.9753C172.812 55.4105 171.768 53.4044 171.127 51.0772C170.565 49.071 170.565 47.0247 170.926 45.0186C171.247 43.1729 171.889 41.3673 173.052 39.8426C174.778 37.6358 176.944 36.2315 179.873 36.2717C181.157 36.2717 182.441 36.3519 183.605 36.9136C184.809 37.5155 185.852 38.3179 186.735 39.321C188.219 41.0062 188.861 43.1328 189.302 45.2593C189.503 46.1821 189.463 47.1451 189.503 48.2284Z" fill="#666B7E"/>
<path d="M63.8364 45.8209C65.6821 45.8209 67.5277 45.8209 69.3734 45.8209C69.8148 45.8209 69.9753 45.7407 69.8549 45.2592C69.4938 43.895 68.9722 42.6111 68.1697 41.4475C67.4074 40.3642 66.324 39.6018 65.0802 39.2808C63.3148 38.8395 61.6296 39.3611 60.3456 40.5648C59.0617 41.8086 58.2592 43.3734 57.8981 45.179C57.7777 45.7808 57.9784 45.8611 58.4598 45.8611C60.2253 45.7808 62.0308 45.8209 63.8364 45.8209ZM73.2654 48.3487H57.6172C57.7376 49.2716 57.7376 50.1142 57.9784 50.9166C58.3796 52.2808 58.9413 53.5648 59.9845 54.6481C60.9876 55.7314 62.2314 56.253 63.6358 56.3734C65.7222 56.574 67.608 55.8919 69.2932 54.7284C70.3765 53.966 71.3395 53.0833 72.3425 52.2407C72.3827 52.2006 72.4629 52.2006 72.6234 52.1604C72.4228 52.7623 72.3024 53.324 72.0216 53.7654C71.4197 54.7283 70.7777 55.6512 70.0555 56.4938C69.1728 57.537 68.0092 58.1388 66.7654 58.6203C65.0802 59.2222 63.395 59.2222 61.7098 58.8611C60.466 58.5802 59.3425 57.9382 58.3395 57.0956C57.2963 56.2129 56.5339 55.1296 55.8518 54.0061C55.5709 53.5246 55.3703 53.003 55.2098 52.4814C54.5679 50.3148 54.287 48.108 54.608 45.9012C54.8487 44.4969 55.25 43.0925 55.8117 41.7685C56.3734 40.5246 57.216 39.4814 58.2993 38.5185C59.3425 37.5956 60.5061 36.9938 61.7901 36.6728C63.2345 36.3117 64.7191 36.3518 66.1635 36.753C67.4876 37.1142 68.6512 37.7963 69.6142 38.679C70.3364 39.3611 70.9382 40.2839 71.5 41.1265C72.4228 42.4907 72.7037 44.0956 73.0246 45.6605C73.2654 46.503 73.2253 47.3858 73.2654 48.3487Z" fill="#666B7E"/>
<path d="M220.92 0C221 1.64506 220.96 3.25 221.12 4.85493C221.441 7.50308 222.244 10.071 223.167 12.5988C224.089 15.0864 224.972 17.6142 225.855 20.142C226.136 20.9846 226.376 21.8272 226.697 22.6697C226.818 23.0309 226.738 23.2716 226.377 23.392C225.694 23.6728 225.012 23.9938 224.33 24.2346C222.164 24.8765 219.917 25.3179 217.67 25.4784C215.744 25.5988 213.818 25.7191 211.852 25.7994C211.33 25.8395 210.768 25.7994 210.247 25.679C210.006 25.6389 209.846 25.358 209.645 25.1975C209.846 25.037 210.006 24.7963 210.207 24.7562C211.21 24.5555 212.213 24.4352 213.176 24.2747C216.065 23.8734 218.954 23.4321 221.843 23.0309C222.123 22.9907 222.364 22.8704 222.685 22.75C221.802 21.7068 220.96 20.7438 220.198 19.7407C218.432 17.3735 217.108 14.7253 216.506 11.8364C216.225 10.5926 216.145 9.26852 216.065 7.98457C215.985 7.02161 216.346 6.13889 216.947 5.33642C218.231 3.65124 219.435 1.8858 220.679 0.160491C220.759 0.120368 220.88 0.0401234 220.92 0Z" fill="#666B7E"/>
<path d="M215.062 2.24695C214.821 3.41053 214.54 4.45374 214.46 5.53708C214.34 6.86115 214.42 8.18522 214.46 9.5093C214.46 9.95065 214.58 10.392 214.661 10.8735C215.022 13.1204 215.824 15.2469 216.907 17.2531C217.63 18.6173 218.512 19.9414 219.315 21.2655C219.355 21.3457 219.395 21.4661 219.475 21.6667C215.503 22.3087 211.611 22.9105 207.599 23.5525C207.198 20.784 207.117 18.0556 207.679 15.3272C208.602 10.1513 211.13 5.85806 215.062 2.24695Z" fill="#666B7E"/>
<path d="M141.074 36.9536C136.018 43.2931 131.003 49.5524 125.907 55.9722C130.762 56.8549 135.537 57.6975 140.272 58.5401C140.272 58.5802 140.272 58.5802 140.272 58.6203H121.093C125.626 52.2407 130.12 45.9814 134.654 39.6018C130.401 38.7592 126.228 37.9166 122.055 37.074C122.055 37.0339 122.055 36.9938 122.055 36.9536H141.074Z" fill="#666B7E"/>
<path d="M54.7684 38.2778C54.2468 38.3982 53.6851 38.5185 53.1635 38.6389C52.1203 38.9198 51.1172 39.2006 50.1141 39.5216C49.9938 39.5617 49.8734 39.7624 49.8734 39.8827C49.7129 42.0494 49.5524 44.216 49.3919 46.3827C49.1913 49.3117 48.9907 52.2809 48.8302 55.2099C48.7098 56.8549 48.6697 58.5 48.5493 60.1451C48.4691 61.5494 48.3487 62.9938 48.2283 64.3981C48.2283 64.5988 48.1882 64.7994 48.0277 65C47.9073 63.0339 47.787 61.0679 47.7067 59.1018C47.5863 56.0525 47.466 53.0432 47.3055 49.9938C47.145 46.8241 46.9845 43.6543 46.824 40.4846C46.7839 39.5617 46.7438 39.4815 45.7808 39.2407C44.7376 38.9599 43.6542 38.679 42.611 38.3981C42.4505 38.358 42.3302 38.2778 42.1697 38.0772C43.0524 37.8364 43.9351 37.6358 44.8178 37.3951C45.3394 37.2346 45.9012 37.1142 46.4228 36.9136C46.5833 36.8333 46.7438 36.5123 46.7438 36.3117C46.7839 35.0679 46.7438 33.8241 46.7839 32.5802C46.7839 31.9383 46.8641 31.2963 47.0246 30.6944C47.3857 29.1698 48.6296 28.1265 50.1944 28.0062C51.3981 27.9259 52.6419 28.0062 53.5246 28.929C53.966 29.3704 54.3271 29.9722 54.4876 30.5741C54.8487 31.7778 54.7684 33.3426 54.4876 34.3056C54.1265 33.5833 53.7654 32.8611 53.4042 32.179C52.9629 31.3364 52.1203 30.9352 51.3178 31.1358C50.6758 31.2963 49.9135 32.0988 49.9135 33.0216C49.9536 34.3056 49.9135 35.5895 49.9135 36.8735C51.5586 37.2747 53.2036 37.716 54.8086 38.1173C54.7283 38.1574 54.7684 38.2377 54.7684 38.2778Z" fill="#666B7E"/>
<path d="M85.2623 27.1234C85.4629 29.7716 85.6234 32.3796 85.824 35.0278C86.0246 37.9167 86.2252 40.8055 86.3857 43.6944C86.5061 45.4197 86.5863 47.1049 86.6666 48.8302C86.7869 50.9167 86.9474 53.0031 87.0678 55.0895C87.1079 55.6111 87.3085 55.6913 87.7499 55.6913C91.4413 55.6913 95.0925 55.6913 98.7838 55.6913H99.6264V58.6605H83.6172C84.0987 48.1481 84.6203 37.6759 85.1018 27.1636C85.2221 27.1234 85.2623 27.1234 85.2623 27.1234Z" fill="#666B7E"/>
<path d="M171.889 39.0401C171.608 38.9599 171.327 38.8395 171.046 38.7994C168.719 38.2778 166.151 39.0802 164.787 41.287C164.065 42.4506 163.704 43.6543 163.623 45.0586C163.423 47.6265 163.022 50.2345 162.741 52.8024C162.62 53.9259 162.54 55.0092 162.42 56.1327C162.339 56.8549 162.219 57.6173 162.018 58.3395C161.537 51.2376 161.056 44.1358 160.534 36.9938H163.623V39.3611C163.664 39.3611 163.704 39.4012 163.744 39.4012C164.145 38.9197 164.506 38.358 164.948 37.9166C165.87 36.9938 167.034 36.6327 168.278 36.7129C169.441 36.7932 170.525 37.1543 171.367 38.037C171.608 38.2778 171.769 38.5987 171.969 38.9197C171.969 38.9599 171.929 39 171.889 39.0401Z" fill="#666B7E"/>
<path d="M190.988 36.5123C205.191 38.6388 219.355 38.037 233.559 35.1882C233.358 35.3487 233.318 35.4289 233.278 35.4691C232.114 35.7901 230.951 36.111 229.747 36.432C227.981 36.9135 226.256 37.4351 224.491 37.8364C222.765 38.2376 221.04 38.4783 219.315 38.7993C215.543 39.5215 211.772 39.682 207.96 39.4814C205.873 39.361 203.787 38.9999 201.701 38.7191C200.015 38.4783 198.33 38.1975 196.645 37.8765C194.92 37.5555 193.194 37.1542 191.469 36.753C191.309 36.6728 191.148 36.5925 190.988 36.5123Z" fill="#666B7E"/>
<path d="M58.7005 33.6235C60.1048 32.9816 61.469 32.3396 62.8332 31.6575C64.9598 30.5742 67.0863 29.4106 69.2129 28.2871C69.3332 28.2069 69.4536 28.0865 69.6141 28.0063C70.6573 27.284 71.4598 27.8859 72.182 28.6482C73.0647 29.5711 72.6635 30.4939 72.0616 31.0556C71.7005 31.3766 71.1388 31.4167 70.6172 31.5371C68.4104 31.9785 66.2036 32.3797 63.9968 32.7809C62.2314 33.1019 60.4258 33.3828 58.6604 33.7038C58.7005 33.6637 58.7005 33.6637 58.7005 33.6235Z" fill="#666B7E"/>
<path d="M200.698 42.0093C209.605 43.2532 218.432 42.7316 227.219 41.0464C218.472 44.176 209.645 44.5371 200.698 42.0093Z" fill="#666B7E"/>
<path d="M205.633 46.2623C211.049 47.0648 216.426 46.5833 221.642 45.7407C216.466 47.5062 211.09 47.7068 205.633 46.2623Z" fill="#666B7E"/>
<path d="M199.494 41.8487C199.333 41.8086 199.173 41.8086 199.012 41.7685C199.012 41.7283 199.012 41.7284 199.012 41.6882C199.173 41.7284 199.333 41.7283 199.494 41.7685C199.494 41.8086 199.494 41.8487 199.494 41.8487Z" fill="#666B7E"/>
<path d="M234.361 34.9475C234.441 34.9475 234.522 34.9074 234.602 34.9074C234.602 34.9475 234.602 34.9475 234.602 34.9877C234.522 34.9877 234.441 35.0278 234.361 35.0278C234.361 34.9877 234.361 34.9475 234.361 34.9475Z" fill="#666B7E"/>
<path d="M188.741 35.9908C188.741 36.0309 188.781 36.0309 188.781 36.071C188.781 36.071 188.741 36.1111 188.741 36.071C188.701 36.071 188.701 36.0309 188.66 35.9908C188.701 36.0309 188.741 36.0309 188.741 35.9908Z" fill="#666B7E"/>
</svg>
