<svg width="15" height="20" viewBox="0 0 15 20" fill="none" xmlns="http://www.w3.org/2000/svg">
<path d="M2.77189 0.438993L3.84789 0.0949929C4.85689 -0.227007 5.93489 0.293993 6.36689 1.31199L7.22689 3.33999C7.60089 4.22299 7.39289 5.26199 6.71289 5.90799L4.81789 7.70599C4.93489 8.78199 5.29689 9.84099 5.90289 10.883C6.47836 11.8911 7.25026 12.7735 8.17289 13.478L10.4489 12.718C11.3109 12.431 12.2509 12.762 12.7789 13.539L14.0119 15.349C14.6269 16.253 14.5159 17.499 13.7529 18.265L12.9359 19.086C12.1219 19.903 10.9589 20.2 9.88389 19.864C7.34389 19.072 5.01089 16.721 2.88089 12.811C0.747887 8.89499 -0.00511293 5.57099 0.622887 2.84299C0.886887 1.69499 1.70389 0.779993 2.77189 0.438993V0.438993Z" fill="white"/>
</svg>
