<svg width="24" height="24" viewBox="0 0 24 24" fill="none" xmlns="http://www.w3.org/2000/svg">
<g clip-path="url(#clip0_56_566)">
<path d="M11.8035 4.4981e-05C7.02953 0.000109726 2.7257 2.87589 0.898807 7.28643C-0.928089 11.697 0.0817187 16.7737 3.45737 20.1494C6.43475 23.153 10.7916 24.334 14.8783 23.2454C18.965 22.1568 22.1569 18.9648 23.2456 14.8781C24.3342 10.7914 23.1531 6.43461 20.1496 3.45722C17.941 1.23629 14.9356 -0.00862474 11.8035 4.4981e-05ZM19.5936 19.5935C15.2912 23.8959 8.31569 23.8959 4.0133 19.5935C-0.289089 15.2911 -0.289089 8.31555 4.0133 4.01316C8.31569 -0.289229 15.2912 -0.289229 19.5936 4.01316C23.896 8.31555 23.896 15.2911 19.5936 19.5935Z" fill="white"/>
<path d="M5.68267 5.68254C8.64708 2.70402 13.3264 2.29478 16.7628 4.7135C16.8776 4.79818 17.0292 4.8141 17.1591 4.7551C17.289 4.6961 17.3767 4.57143 17.3885 4.42926C17.4002 4.2871 17.3341 4.14972 17.2157 4.07022C13.4637 1.44095 8.36537 1.88603 5.12576 5.12564C1.88615 8.36525 1.44108 13.4636 4.07034 17.2155C4.14984 17.334 4.28722 17.4001 4.42939 17.3884C4.57155 17.3766 4.69622 17.2889 4.75522 17.159C4.81422 17.0291 4.7983 16.8775 4.71362 16.7627C2.2949 13.3262 2.70414 8.64696 5.68267 5.68254Z" fill="white"/>
<path d="M18.9887 6.29507C18.9026 6.35518 18.8441 6.44719 18.8262 6.55063C18.8084 6.65408 18.8326 6.76038 18.8935 6.84589C21.297 10.2848 20.8866 14.9527 17.9198 17.9194C14.953 20.8862 10.2852 21.2966 6.84626 18.8931C6.73147 18.8084 6.57983 18.7925 6.44996 18.8515C6.32008 18.9105 6.23232 19.0352 6.22058 19.1773C6.20884 19.3195 6.27497 19.4569 6.39341 19.5364C10.1454 22.1629 15.2416 21.7165 18.4799 18.4777C21.7182 15.239 22.1638 10.1427 19.5367 6.39107C19.4119 6.21322 19.1665 6.17024 18.9887 6.29507Z" fill="white"/>
<path d="M11.5281 18.0926C11.617 18.0965 11.7055 18.0985 11.7944 18.0985C13.9433 18.0958 15.9438 17.002 17.1059 15.1945C17.2274 15.0044 17.2625 14.7718 17.2027 14.5543C17.1436 14.3397 16.9963 14.1601 16.7974 14.0602L15.381 13.352C15.0339 13.1789 14.6124 13.2846 14.388 13.601C13.5387 14.821 11.9517 15.2806 10.5819 14.7031C9.21219 14.1256 8.43318 12.6686 8.71371 11.2088C8.99425 9.749 10.2578 8.68448 11.7441 8.65584C12.6967 8.6331 13.6071 9.04856 14.2141 9.78305C14.4465 10.058 14.8378 10.1366 15.1584 9.97269L16.5944 9.25584C16.8028 9.15142 16.9545 8.96029 17.0088 8.73359C17.0632 8.50689 17.0146 8.26777 16.8761 8.08023C15.6883 6.46759 13.8064 5.51342 11.8035 5.5083C10.0816 5.50893 8.43505 6.21458 7.2471 7.46104C6.05914 8.70749 5.43339 10.386 5.51547 12.1059C5.68974 15.3473 8.28601 17.9323 11.5281 18.0926ZM7.81829 8.00233C8.85416 6.90769 10.2964 6.28987 11.8035 6.29519C13.5584 6.29919 15.2071 7.13687 16.245 8.55197L14.8184 9.27945C14.0571 8.36367 12.9201 7.84449 11.7295 7.86895C9.63393 7.92739 7.9442 9.60368 7.86904 11.6987C7.82291 13.4361 8.92217 14.9979 10.5732 15.5407C12.2242 16.0836 14.0358 15.4788 15.0297 14.0531L16.4461 14.7613V14.7691C15.1548 16.79 12.7044 17.7431 10.3871 17.1259C8.06968 16.5087 6.41792 14.4631 6.30275 12.0678C6.22534 10.5616 6.7738 9.09032 7.81829 8.00233Z" fill="white"/>
</g>
<defs>
<clipPath id="clip0_56_566">
<rect width="24" height="24" fill="white"/>
</clipPath>
</defs>
</svg>
