<svg width="16" height="16" viewBox="0 0 16 16" fill="none" xmlns="http://www.w3.org/2000/svg">
<path d="M8 0.5C3.8525 0.5 0.5 3.8525 0.5 8C0.5 12.1475 3.8525 15.5 8 15.5C12.1475 15.5 15.5 12.1475 15.5 8C15.5 3.8525 12.1475 0.5 8 0.5ZM11.225 11.225C11.1556 11.2945 11.0732 11.3497 10.9825 11.3873C10.8917 11.425 10.7945 11.4443 10.6962 11.4443C10.598 11.4443 10.5008 11.425 10.41 11.3873C10.3193 11.3497 10.2369 11.2945 10.1675 11.225L8 9.0575L5.8325 11.225C5.69227 11.3652 5.50207 11.444 5.30375 11.444C5.10543 11.444 4.91523 11.3652 4.775 11.225C4.63477 11.0848 4.55598 10.8946 4.55598 10.6962C4.55598 10.5981 4.57533 10.5008 4.6129 10.4101C4.65048 10.3194 4.70556 10.2369 4.775 10.1675L6.9425 8L4.775 5.8325C4.63477 5.69227 4.55598 5.50207 4.55598 5.30375C4.55598 5.10543 4.63477 4.91523 4.775 4.775C4.91523 4.63477 5.10543 4.55598 5.30375 4.55598C5.50207 4.55598 5.69227 4.63477 5.8325 4.775L8 6.9425L10.1675 4.775C10.2369 4.70556 10.3194 4.65048 10.4101 4.6129C10.5008 4.57533 10.5981 4.55598 10.6962 4.55598C10.7944 4.55598 10.8917 4.57533 10.9824 4.6129C11.0731 4.65048 11.1556 4.70556 11.225 4.775C11.2944 4.84444 11.3495 4.92687 11.3871 5.01759C11.4247 5.10832 11.444 5.20555 11.444 5.30375C11.444 5.40195 11.4247 5.49918 11.3871 5.58991C11.3495 5.68063 11.2944 5.76306 11.225 5.8325L9.0575 8L11.225 10.1675C11.51 10.4525 11.51 10.9325 11.225 11.225Z" fill="white"/>
</svg>
