<svg width="201" height="65" viewBox="0 0 201 65" fill="none" xmlns="http://www.w3.org/2000/svg">
<path d="M24.8107 46.6829L25.0451 46.4151C29.8666 41.5936 34.6881 36.7721 39.5096 31.9506C40.2128 31.2474 40.3132 31.2474 41.0498 31.9506C45.4361 36.3368 49.7888 40.6896 54.175 45.0758C54.7108 45.6115 54.9451 45.578 55.3135 44.9084C58.3269 39.3837 59.2309 33.4908 57.9921 27.33C55.7822 16.2137 46.608 7.91001 35.3243 6.67115C29.197 6.0015 23.4714 7.30733 18.3486 10.7895C10.4801 16.1802 6.4957 23.6804 6.62963 33.2564C6.6966 37.2074 7.73456 40.9574 9.54262 44.4731C9.87745 45.1428 10.0783 45.1762 10.5806 44.6405C16.641 38.5801 22.7013 32.5198 28.7617 26.4594C29.8666 25.3545 30.9715 24.1826 32.11 23.0107C32.8466 23.7808 33.4827 24.417 34.1524 25.0531C35.7596 26.6603 35.793 28.7028 34.1524 30.3099C27.6233 36.8725 21.0607 43.4016 14.4981 49.9308C14.0628 50.366 13.9958 50.6339 14.4646 51.0692C19.6879 56.0246 25.8822 58.5023 33.1144 58.3684C39.6436 58.2345 45.3356 55.8572 50.1571 51.471C50.7598 50.9353 50.7598 50.8683 50.1906 50.2991C47.0767 47.1852 43.9628 44.0713 40.8489 40.9574C40.4137 40.5221 40.1793 40.4887 39.744 40.9239C37.1324 43.5691 34.5207 46.1807 31.9091 48.7924C30.6032 50.0982 28.5943 50.2991 27.188 49.0937C26.284 48.424 25.5808 47.5535 24.8107 46.6829ZM32.3443 64.998C14.3976 64.998 -0.0334245 50.5335 5.81466e-05 32.4863C0.0335408 14.2048 15.1677 -0.393693 33.2818 0.00809911C50.5924 0.409891 64.6216 14.2382 64.9899 31.7832C65.3583 50.3995 50.1906 65.1989 32.3443 64.998Z" fill="#666B7E"/>
<path d="M135.169 34.9625C133.763 34.9625 132.39 35.0295 131.051 34.9291C130.683 34.8956 130.248 34.5273 129.98 34.1924C127.1 30.3754 124.221 26.5249 121.341 22.6744C121.241 22.5739 121.14 22.44 120.973 22.2391C120.973 22.507 120.939 22.6409 120.939 22.7748C120.939 26.391 120.939 30.0071 120.939 33.6232C120.939 34.6612 120.638 34.9291 119.6 34.9291C118.395 34.9291 117.223 34.9291 115.984 34.9291V14.1028C117.424 14.1028 118.863 14.0693 120.303 14.1363C120.571 14.1363 120.906 14.4711 121.107 14.739C123.953 18.5225 126.799 22.3396 129.645 26.1566C129.779 26.3575 129.946 26.5249 130.214 26.8932V26.0896C130.214 22.507 130.214 18.9243 130.214 15.3752C130.214 14.3707 130.482 14.1028 131.486 14.1028C132.692 14.1028 133.864 14.1028 135.136 14.1028V34.9625H135.169Z" fill="#666B7E"/>
<path d="M144.712 30.6792C146.085 30.6792 147.391 30.7127 148.73 30.6792C150.136 30.6457 151.342 30.1435 152.346 29.1055C153.384 28.034 153.82 26.7282 154.02 25.2885C154.422 21.9737 152.48 18.9602 149.366 18.458C147.86 18.2236 146.286 18.4245 144.746 18.4245V30.6792H144.712ZM139.388 34.898C139.388 34.7306 139.355 34.5297 139.355 34.3623C139.355 28.0341 139.355 21.6723 139.355 15.3441C139.355 14.3062 139.556 14.1053 140.627 14.1053C143.172 14.1053 145.717 14.1053 148.261 14.1053C150.739 14.1053 153.049 14.641 155.125 16.0472C157.67 17.7883 159.043 20.2661 159.344 23.313C159.612 26.159 159.076 28.8376 157.201 31.1145C155.326 33.4248 152.815 34.6971 149.902 34.8645C146.453 35.0654 142.971 34.965 139.522 34.9984L139.388 34.898Z" fill="#666B7E"/>
<path d="M196.543 28.0993C197.983 30.3761 199.423 32.6195 200.896 34.9298C200.662 34.9633 200.494 34.9968 200.327 34.9968C198.82 34.9968 197.314 34.9968 195.807 34.9968C195.137 34.9968 194.702 34.7624 194.401 34.1597C193.597 32.6195 192.793 31.0793 191.956 29.5391C191.856 29.3382 191.521 29.1373 191.287 29.1038C190.583 29.0368 189.847 29.0703 189.11 29.0703C189.11 28.0658 189.043 27.0948 189.144 26.1573C189.211 25.4207 189.88 24.9185 190.65 24.885C191.32 24.8515 191.99 24.8515 192.659 24.7511C194.334 24.4832 195.271 23.2443 195.238 21.4363C195.204 19.7287 194.267 18.5233 192.626 18.3559C191.119 18.2219 189.579 18.2554 188.072 18.2219C187.637 18.2219 187.637 18.5233 187.637 18.8581C187.637 20.2644 187.637 21.7041 187.637 23.1104V34.1597V34.8963H182.313C182.313 34.6619 182.28 34.4945 182.28 34.2936V14.8737C182.28 14.0366 182.28 14.0366 183.15 14.0366C185.963 14.0366 188.775 13.9696 191.588 14.0701C192.961 14.1036 194.367 14.3045 195.673 14.7063C198.351 15.5433 199.892 17.4518 200.193 20.2644C200.494 23.1439 199.892 25.6886 197.414 27.4966C197.18 27.731 196.878 27.8649 196.543 28.0993Z" fill="#666B7E"/>
<path d="M84.7447 27.5314C84.209 27.5314 83.7402 27.5314 83.2714 27.5314C82.2 27.4979 81.4634 26.8283 81.4299 25.7233C81.4299 24.9867 81.4299 24.2501 81.4299 23.48H89.3988C89.3988 24.6519 89.3988 25.8238 89.3988 26.9622C89.3988 28.5024 89.3653 30.0091 89.3653 31.5493C89.3653 32.152 89.1644 32.6542 88.6622 32.9221C84.5103 35.1654 80.2245 36.103 75.7044 34.094C71.5525 32.2524 69.3092 28.3015 69.5435 23.7813C69.7779 19.5625 72.624 15.9129 76.8093 14.5736C81.0951 13.2008 85.1465 13.837 88.8631 16.4151C89.0974 16.5825 89.3318 16.7835 89.5997 17.0178C88.7961 17.9888 88.0595 18.9263 87.2894 19.8304C86.8541 20.3661 86.3519 20.3661 85.7157 19.9308C84.3429 19.0268 82.8697 18.4241 81.1955 18.3906C78.0816 18.3236 75.5369 20.4331 75.0682 23.5135C74.5325 26.8952 76.5749 29.9421 79.8897 30.6453C81.4299 30.9801 82.8696 30.6118 84.2759 29.9421C84.4768 29.8417 84.7112 29.5403 84.7112 29.306C84.7782 28.7368 84.7447 28.1676 84.7447 27.5314Z" fill="#666B7E"/>
<path d="M167.547 30.7446H168.451C171.465 30.7446 174.478 30.7446 177.492 30.7446C178.764 30.7446 178.931 30.8785 178.898 32.1509C178.898 33.0214 178.898 33.892 178.898 34.7625L178.831 34.9299H162.257C162.257 34.7625 162.224 34.5616 162.224 34.3607C162.224 27.8651 162.224 21.3694 162.224 14.8738C162.224 14.3046 162.391 14.0367 162.994 14.0367C168.05 14.0367 173.106 14.0367 178.161 14.0367L178.53 14.0702C178.53 15.2086 178.563 16.3471 178.53 17.452C178.496 18.0882 178.027 18.2221 177.458 18.2221C174.478 18.2221 171.498 18.2221 168.485 18.2221C167.547 18.2221 167.547 18.2221 167.547 19.1596V22.2735C167.882 22.2735 168.15 22.307 168.418 22.307C170.561 22.307 172.737 22.307 174.88 22.307C175.65 22.307 175.751 22.4074 175.751 23.1775C175.751 24.249 175.751 25.3539 175.751 26.5258H175.014C172.804 26.5258 170.561 26.5258 168.351 26.5258C167.715 26.5258 167.514 26.7267 167.514 27.3629C167.547 28.5013 167.547 29.6062 167.547 30.7446Z" fill="#666B7E"/>
<path d="M102.39 19.4273C101.352 22.0724 100.381 24.5167 99.41 27.0279H105.336C104.332 24.5167 103.394 22.0389 102.39 19.4273ZM114.042 34.9633C112.368 34.9633 110.794 34.9633 109.187 34.9633C108.651 34.9633 108.249 34.6954 108.049 34.1597C107.747 33.2891 107.379 32.4521 107.078 31.615C106.944 31.2467 106.776 31.1128 106.374 31.1128C103.662 31.1462 100.984 31.1462 98.2716 31.1128C97.9033 31.1128 97.7359 31.2467 97.6354 31.5815C97.3006 32.4521 96.9658 33.3226 96.5975 34.1932C96.3966 34.6954 96.0952 34.9967 95.526 34.9967C93.9858 34.9967 92.4456 34.9967 90.7715 34.9967C91.1733 34.0592 91.5416 33.1887 91.9099 32.3181C94.3876 26.5591 96.8988 20.7666 99.3765 15.0076C99.6444 14.3714 100.013 14.0701 100.749 14.1036C101.988 14.137 103.227 14.137 104.466 14.1036C104.968 14.1036 105.336 14.271 105.537 14.7732C108.316 21.4028 111.129 28.0324 113.908 34.6619L114.042 34.9633Z" fill="#666B7E"/>
<path d="M170.125 43.7359C170.125 44.0372 170.092 44.3721 170.125 44.6734L170.326 45.0082C171.13 44.9747 171.967 44.9748 172.737 44.7739C173.239 44.6399 173.34 44.0707 173.306 43.602C173.273 43.0997 173.139 42.631 172.57 42.5305C172.168 42.4635 171.766 42.4301 171.364 42.4301C170.125 42.4301 170.125 42.4301 170.125 43.7359ZM170.192 49.5619H168.15V40.689C169.556 40.689 170.895 40.689 172.268 40.689C172.637 40.689 173.038 40.7559 173.407 40.8564C174.445 41.0908 175.148 41.7269 175.315 42.7984C175.483 43.7694 175.483 44.7404 174.846 45.5774C174.579 45.9123 174.177 46.1801 173.808 46.5149C174.478 47.4859 175.181 48.4904 175.985 49.5954C175.114 49.5954 174.378 49.5954 173.641 49.5954L173.273 49.2605C172.771 48.5574 172.268 47.8208 171.766 47.1176C171.565 46.8163 170.594 46.6154 170.36 46.8163L170.226 47.2516C170.159 47.9882 170.192 48.7583 170.192 49.5619Z" fill="#666B7E"/>
<path d="M126.933 47.8216C127.469 47.8216 127.971 47.855 128.44 47.8216C129.377 47.7881 130.214 47.4532 130.65 46.5492C131.118 45.5112 131.085 44.4733 130.482 43.5023C129.947 42.5982 128.473 42.2634 126.933 42.5648V47.8216ZM124.891 49.5961V40.6562C126.665 40.7567 128.406 40.4554 130.114 40.9576C131.855 41.4933 132.893 42.8661 132.96 44.7077C132.993 45.7121 132.893 46.6497 132.391 47.5537C131.621 48.9265 130.315 49.4622 128.842 49.5626C127.569 49.6631 126.263 49.5961 124.891 49.5961Z" fill="#666B7E"/>
<path d="M88.8963 47.9227C90.336 47.9227 91.4744 46.6839 91.4744 45.1102C91.4744 43.503 90.3025 42.2307 88.8293 42.2307C87.3895 42.2307 86.1842 43.5365 86.2177 45.1437C86.2511 46.7173 87.3895 47.9227 88.8963 47.9227ZM88.8628 49.6973C86.1842 49.6973 84.1417 47.6883 84.1752 45.0767C84.2087 42.4316 86.2177 40.4561 88.8963 40.4561C91.5414 40.4561 93.6173 42.4985 93.5838 45.1437C93.5504 47.7218 91.4744 49.7308 88.8628 49.6973Z" fill="#666B7E"/>
<path d="M142.938 47.9211C144.377 47.9211 145.549 46.7157 145.583 45.209C145.616 43.5349 144.478 42.2291 143.005 42.1956C141.565 42.1956 140.359 43.4344 140.326 45.0081C140.292 46.6488 141.431 47.9211 142.938 47.9211ZM142.904 49.6957C140.259 49.6957 138.25 47.6867 138.25 45.0751C138.25 42.4634 140.292 40.421 142.938 40.421C145.616 40.421 147.625 42.43 147.659 45.1086C147.659 47.7202 145.616 49.6957 142.904 49.6957Z" fill="#666B7E"/>
<path d="M157.603 47.9227C159.11 47.9227 160.248 46.6839 160.215 45.0432C160.215 43.4695 159.009 42.1972 157.569 42.2307C156.13 42.2307 154.958 43.5365 154.958 45.1102C154.958 46.6839 156.096 47.9227 157.603 47.9227ZM157.603 49.6973C154.924 49.6973 152.882 47.7218 152.882 45.0767C152.882 42.465 154.924 40.4561 157.569 40.4561C160.215 40.4561 162.257 42.465 162.29 45.0767C162.29 47.6883 160.281 49.6973 157.603 49.6973Z" fill="#666B7E"/>
<path d="M99.2091 40.689H101.151C101.151 40.8899 101.185 41.0573 101.185 41.2582C101.185 42.631 101.185 44.0372 101.185 45.41C101.185 45.7449 101.218 46.0797 101.285 46.4145C101.452 47.3185 102.189 47.9547 103.026 47.9212C103.897 47.8877 104.667 47.2181 104.734 46.2806C104.801 44.6064 104.801 42.9658 104.834 41.2917C104.834 41.0908 104.834 40.9233 104.834 40.689H106.776L106.81 41.0573C106.81 42.6979 106.81 44.3386 106.81 46.0127C106.776 47.7538 105.705 49.1936 104.165 49.5954C102.357 50.0641 100.448 49.4279 99.6779 47.9212C99.3765 47.352 99.2091 46.6824 99.1756 46.0797C99.1087 44.3721 99.1422 42.631 99.1422 40.9233L99.2091 40.689Z" fill="#666B7E"/>
<path d="M182.045 46.6836C182.414 46.9515 182.749 47.2528 183.117 47.3867C183.72 47.6211 184.322 47.822 184.958 47.889C185.461 47.9559 185.862 47.5541 185.896 47.1189C185.929 46.6501 185.628 46.3823 185.193 46.2483C184.49 46.0139 183.753 45.813 183.05 45.5787C181.476 45.0095 181.007 43.938 181.409 42.2304C181.577 41.5273 182.146 41.092 182.782 40.7906C184.222 40.121 186.566 40.5228 187.804 41.6612C187.503 42.1299 187.168 42.5987 186.9 43.0005C186.164 42.7326 185.528 42.4983 184.858 42.2639L184.557 42.2304C183.954 42.1969 183.485 42.4983 183.418 42.9335C183.351 43.3688 183.552 43.6702 184.188 43.9045C184.891 44.1389 185.595 44.3063 186.298 44.5407C187.503 45.0095 188.072 45.8465 188.039 47.0519C188.005 48.2238 187.336 49.1278 186.13 49.4627C184.289 49.9984 182.648 49.5631 181.175 48.3243L181.108 47.8555C181.342 47.4872 181.711 47.1189 182.045 46.6836Z" fill="#666B7E"/>
<path d="M114.779 42.4301H112.268V40.689H119.232V42.3966H116.788V49.5619H114.779V42.4301Z" fill="#666B7E"/>
<path d="M189.277 47.4191V47.7204H189.813V49.1936H190.181V47.7204H190.717V47.4191H189.277Z" fill="#666B7E"/>
<path d="M192.09 47.4191H192.626V49.1936H192.291V47.9883V47.8543V47.6869L191.956 49.1936H191.588L191.253 47.6869V47.8543V47.9883V49.1936H190.918V47.4191H191.454L191.789 48.7919L192.09 47.4191Z" fill="#666B7E"/>
</svg>
