<svg width="20" height="20" viewBox="0 0 20 20" fill="none" xmlns="http://www.w3.org/2000/svg">
<path d="M9.99816 6.87579C8.27785 6.87579 6.87394 8.2797 6.87394 10C6.87394 11.7203 8.27785 13.1242 9.99816 13.1242C11.7185 13.1242 13.1224 11.7203 13.1224 10C13.1224 8.2797 11.7185 6.87579 9.99816 6.87579ZM19.3685 10C19.3685 8.70626 19.3802 7.42423 19.3075 6.13282C19.2349 4.63282 18.8927 3.30157 17.7958 2.2047C16.6966 1.10548 15.3677 0.765638 13.8677 0.692982C12.5739 0.620326 11.2919 0.632045 10.0005 0.632045C8.70676 0.632045 7.42473 0.620326 6.13332 0.692982C4.63332 0.765638 3.30207 1.10783 2.20519 2.2047C1.10597 3.30392 0.766127 4.63282 0.693471 6.13282C0.620814 7.42657 0.632533 8.7086 0.632533 10C0.632533 11.2914 0.620814 12.5758 0.693471 13.8672C0.766127 15.3672 1.10831 16.6984 2.20519 17.7953C3.30441 18.8945 4.63332 19.2344 6.13332 19.307C7.42707 19.3797 8.7091 19.368 10.0005 19.368C11.2943 19.368 12.5763 19.3797 13.8677 19.307C15.3677 19.2344 16.699 18.8922 17.7958 17.7953C18.895 16.6961 19.2349 15.3672 19.3075 13.8672C19.3825 12.5758 19.3685 11.2938 19.3685 10ZM9.99816 14.807C7.33801 14.807 5.19113 12.6602 5.19113 10C5.19113 7.33985 7.33801 5.19298 9.99816 5.19298C12.6583 5.19298 14.8052 7.33985 14.8052 10C14.8052 12.6602 12.6583 14.807 9.99816 14.807ZM15.0021 6.11876C14.381 6.11876 13.8794 5.6172 13.8794 4.99611C13.8794 4.37501 14.381 3.87345 15.0021 3.87345C15.6232 3.87345 16.1247 4.37501 16.1247 4.99611C16.1249 5.14359 16.096 5.28966 16.0397 5.42595C15.9833 5.56224 15.9006 5.68607 15.7963 5.79036C15.692 5.89464 15.5682 5.97733 15.4319 6.03368C15.2956 6.09003 15.1496 6.11895 15.0021 6.11876Z" fill="white"/>
</svg>
