<svg width="30" height="30" viewBox="0 0 30 30" fill="none" xmlns="http://www.w3.org/2000/svg">
<path d="M16.0271 26.075V29.0208C18.9583 28.7292 21.6271 27.5625 23.7854 25.7979L21.7146 23.7125C20.0667 24.9989 18.1014 25.8153 16.0271 26.075V26.075ZM2.91667 14.5104C2.91667 8.60416 7.33542 3.70417 13.0521 2.94583V0C5.71667 0.772916 0 6.98542 0 14.5104C0 22.0354 5.71667 28.2479 13.0521 29.0208V26.075C7.33542 25.3167 2.91667 20.4167 2.91667 14.5104V14.5104ZM26.1333 13.0521H29.0792C28.7875 10.1208 27.6208 7.45208 25.8562 5.29375L23.7708 7.37917C25.025 8.98333 25.8708 10.9229 26.1333 13.0521ZM23.7854 3.22292C21.5723 1.40942 18.8738 0.288415 16.0271 0V2.94583C18.1562 3.20833 20.0958 4.05417 21.7146 5.30833L23.7854 3.22292V3.22292ZM23.7708 21.6562L25.8562 23.7271C27.6721 21.5154 28.7935 18.8161 29.0792 15.9687H26.1333C25.8736 18.0431 25.0572 20.0084 23.7708 21.6562Z" fill="white"/>
<path d="M20.3333 13.1875C20.3333 9.55626 17.5625 7.20834 14.5 7.20834C11.4375 7.20834 8.66667 9.55626 8.66667 13.1875C8.66667 15.6083 10.6063 18.4813 14.5 21.7917C18.3938 18.4813 20.3333 15.6083 20.3333 13.1875ZM14.5 14.5C14.0978 14.4826 13.7179 14.3106 13.4395 14.0199C13.161 13.7292 13.0056 13.3421 13.0056 12.9396C13.0056 12.537 13.161 12.15 13.4395 11.8593C13.7179 11.5686 14.0978 11.3966 14.5 11.3792C14.9022 11.3966 15.2821 11.5686 15.5605 11.8593C15.839 12.15 15.9944 12.537 15.9944 12.9396C15.9944 13.3421 15.839 13.7292 15.5605 14.0199C15.2821 14.3106 14.9022 14.4826 14.5 14.5Z" fill="white"/>
</svg>
