<svg width="143" height="56" viewBox="0 0 143 56" fill="none" xmlns="http://www.w3.org/2000/svg">
<path d="M51.9627 6.71723C51.9627 7.59935 51.7893 8.47283 51.4525 9.28779C51.1156 10.1028 50.6219 10.8433 49.9994 11.467C49.377 12.0908 48.638 12.5855 47.8248 12.9231C47.0115 13.2607 46.1399 13.4344 45.2596 13.4344C43.4819 13.4344 41.7769 12.7267 40.5199 11.467C39.2628 10.2073 38.5566 8.49874 38.5566 6.71723C38.5566 4.93572 39.2628 3.22717 40.5199 1.96745C41.7769 0.707734 43.4819 3.07608e-05 45.2596 3.05176e-05C46.1399 3.05042e-05 47.0115 0.173776 47.8248 0.511347C48.638 0.848918 49.377 1.3437 49.9994 1.96745C50.6219 2.5912 51.1156 3.3317 51.4525 4.14667C51.7893 4.96164 51.9627 5.83512 51.9627 6.71723Z" fill="white"/>
<path d="M36.5463 37.6613H40.8583V41.9824H36.5463V37.6613Z" fill="white"/>
<path d="M28.697 14.1593C29.5334 13.4158 30.6098 13.0064 31.7278 13.0064C32.8457 13.0064 33.9221 13.4159 34.7585 14.1593L35.9603 15.2277V11.4106C35.9603 5.1272 30.8591 0.0153503 24.5889 0.0153503C19.0965 0.0153503 14.5012 3.93776 13.4456 9.13401C15.1721 11.7619 18.198 16.8987 19.4921 22.3421L28.697 14.1593Z" fill="white"/>
<path d="M50.5419 48.9937H48.4393V34.4781L49.4301 35.359C49.7199 35.6166 50.0806 35.7433 50.4398 35.7432C50.8601 35.7432 51.2784 35.5699 51.5792 35.23C52.1372 34.5998 52.0796 33.6355 51.4506 33.0765L46.9878 29.1093V21.2031C46.9878 20.3606 46.3062 19.6776 45.4654 19.6776C44.6247 19.6776 43.943 20.3606 43.943 21.2031V26.4027L32.7378 16.4417C32.1614 15.9293 31.2938 15.9293 30.7174 16.4417L12.0048 33.0764C11.3758 33.6354 11.3183 34.5996 11.8761 35.2299C12.4341 35.8603 13.3964 35.9178 14.0252 35.3587L15.0161 34.4779V48.9935H10.1029V42.338C10.7532 42.1388 11.379 41.8118 11.9715 41.3634V38.673C11.0615 38.4587 10.2295 37.9675 9.59863 37.2548C7.92759 35.3671 8.10057 32.4688 9.98423 30.7941L16.8555 24.6859C15.6989 17.2917 10.0709 9.58237 9.80506 9.22179C9.51799 8.83253 9.06365 8.60281 8.58064 8.60281C8.09762 8.60281 7.64328 8.83253 7.35621 9.22179C7.05979 9.62376 0.0979255 19.159 0.0979255 27.2088C0.0979255 31.1377 0.879804 34.8554 2.29957 37.677C3.55196 40.166 5.20571 41.7716 7.05826 42.3381V48.9937H1.52237C0.681615 48.9937 0 49.6767 0 50.5192C0 51.3617 0.681615 52.0447 1.52237 52.0643H48.4394H50.542C51.3827 52.0447 52.0643 51.3617 52.0643 50.5192C52.0643 49.6767 51.3826 48.9937 50.5419 48.9937ZM33.5015 36.1358C33.5015 35.2934 34.1831 34.6103 35.0239 34.6103H42.3807C43.2215 34.6103 43.9031 35.2934 43.9031 36.1358V43.5081C43.9031 44.3506 43.2215 45.0336 42.3807 45.0336H35.0239C34.1831 45.0336 33.5015 44.3506 33.5015 43.5081V36.1358ZM25.1652 48.9937V37.6614H22.1205V48.9937H19.0759V36.1358C19.0759 35.2933 19.7575 34.6103 20.5982 34.6103H26.6876C27.5284 34.6103 28.21 35.2934 28.21 36.1358V48.9937H25.1652Z" fill="white"/>
<path d="M80.4571 45.584C80.0206 46.0205 79.4706 46.2388 78.8071 46.2388H78.6499C76.9039 46.2388 75.4372 45.6451 74.2499 44.4578C73.0626 43.2705 72.469 41.8038 72.469 40.0578V32.1482H66.3403V38.1982C66.3403 38.8617 66.1221 39.403 65.6856 39.8221C65.2491 40.2586 64.6991 40.4768 64.0356 40.4768C63.3721 40.4768 62.8221 40.2586 62.3856 39.8221C61.9665 39.403 61.757 38.8617 61.757 38.1982V23.0077C61.757 22.3442 61.9665 21.8029 62.3856 21.3839C62.8221 20.9473 63.3721 20.7291 64.0356 20.7291C64.6991 20.7291 65.2491 20.9473 65.6856 21.3839C66.1221 21.8029 66.3403 22.3442 66.3403 23.0077V27.5648H72.469V23.0077C72.469 22.3442 72.6785 21.8029 73.0975 21.3839C73.534 20.9473 74.084 20.7291 74.7475 20.7291C75.411 20.7291 75.961 20.9473 76.3975 21.3839C76.8341 21.8029 77.0523 22.3442 77.0523 23.0077V40.0578C77.0523 40.5117 77.2007 40.8871 77.4976 41.184C77.8118 41.4983 78.196 41.6554 78.6499 41.6554H78.8071C79.4706 41.6554 80.0206 41.8737 80.4571 42.3102C80.8936 42.7467 81.1119 43.2967 81.1119 43.9602C81.1119 44.6237 80.8936 45.1649 80.4571 45.584Z" fill="white"/>
<path d="M84.5951 40.5292C82.5523 40.5292 80.8412 39.8395 79.4618 38.4602C78.0824 37.0633 77.3927 35.3435 77.3927 33.3006C77.3927 31.2577 78.0824 29.5466 79.4618 28.1672C80.8412 26.7879 82.5523 26.0982 84.5951 26.0982C86.638 26.0982 88.3491 26.7879 89.7285 28.1672C91.1254 29.5466 91.8238 31.2577 91.8238 33.3006C91.8238 35.3435 91.1254 37.0633 89.7285 38.4602C88.3491 39.8395 86.638 40.5292 84.5951 40.5292ZM84.5951 30.6815C83.8618 30.6815 83.242 30.9347 82.7356 31.4411C82.2293 31.9474 81.9761 32.5673 81.9761 33.3006C81.9761 34.0339 82.2293 34.6625 82.7356 35.1863C83.242 35.6927 83.8618 35.9459 84.5951 35.9459C85.3285 35.9459 85.9483 35.6927 86.4547 35.1863C86.9785 34.6625 87.2404 34.0339 87.2404 33.3006C87.2404 32.5673 86.9785 31.9474 86.4547 31.4411C85.9483 30.9347 85.3285 30.6815 84.5951 30.6815Z" fill="white"/>
<path d="M115.238 45.584C114.802 46.0205 114.252 46.2388 113.588 46.2388H113.483C111.737 46.2388 110.271 45.6451 109.083 44.4578C107.896 43.2705 107.302 41.8038 107.302 40.0578V32.253C107.302 31.8165 107.145 31.4498 106.831 31.153C106.534 30.8387 106.167 30.6815 105.731 30.6815C105.26 30.6815 104.875 30.8387 104.579 31.153V38.1982C104.579 38.8617 104.36 39.403 103.924 39.8221C103.487 40.2586 102.937 40.4768 102.274 40.4768C101.61 40.4768 101.06 40.2586 100.624 39.8221C100.205 39.403 99.9952 38.8617 99.9952 38.1982V32.253C99.9952 31.8165 99.8381 31.4498 99.5238 31.153C99.2095 30.8387 98.8341 30.6815 98.3976 30.6815C97.9436 30.6815 97.5595 30.83 97.2452 31.1268C96.9484 31.4236 96.8 31.799 96.8 32.253V38.1982C96.8 38.8617 96.5817 39.403 96.1452 39.8221C95.7261 40.2586 95.1849 40.4768 94.5214 40.4768C93.8579 40.4768 93.3079 40.2586 92.8714 39.8221C92.4349 39.403 92.2166 38.8617 92.2166 38.1982V32.253C92.2166 30.5069 92.8102 29.049 93.9976 27.8791C95.1849 26.6918 96.6515 26.0982 98.3976 26.0982C99.7595 26.0982 100.982 26.4998 102.064 27.303C103.129 26.4998 104.352 26.0982 105.731 26.0982C107.477 26.0982 108.935 26.6918 110.105 27.8791C111.292 29.049 111.886 30.5069 111.886 32.253V40.0578C111.886 40.5117 112.034 40.8871 112.331 41.184C112.645 41.4983 113.029 41.6554 113.483 41.6554H113.588C114.252 41.6554 114.802 41.8737 115.238 42.3102C115.675 42.7467 115.893 43.2967 115.893 43.9602C115.893 44.6237 115.675 45.1649 115.238 45.584Z" fill="white"/>
<path d="M118.879 30.7339C118.285 30.8736 117.796 31.1879 117.412 31.6768C117.045 32.1482 116.862 32.6895 116.862 33.3006C116.862 34.0339 117.115 34.6625 117.621 35.1863C118.128 35.6927 118.748 35.9459 119.481 35.9459H121.812C122.475 35.9459 123.017 36.1641 123.436 36.6006C123.872 37.0197 124.091 37.5609 124.091 38.2244C124.091 38.8879 123.872 39.4379 123.436 39.8744C123.017 40.311 122.475 40.5292 121.812 40.5292H119.481C117.438 40.5292 115.727 39.8395 114.348 38.4602C112.968 37.0633 112.279 35.3435 112.279 33.3006C112.279 31.2577 112.968 29.5466 114.348 28.1672C115.727 26.7879 117.438 26.0982 119.481 26.0982C121.541 26.0982 123.279 26.8315 124.693 28.2982C125.147 28.7696 125.374 29.2934 125.374 29.8696C125.374 30.603 125.06 31.2141 124.431 31.703L121.105 34.9506C120.616 35.422 120.083 35.6578 119.507 35.6578C118.861 35.6578 118.311 35.4308 117.857 34.9768C117.403 34.5054 117.176 33.9466 117.176 33.3006C117.176 32.8117 117.368 32.3315 117.752 31.8601L118.879 30.7339Z" fill="white"/>
<path d="M50 50.5C50 50.5 71.4871 52.829 93.1734 53.7367C107.394 54.332 121.134 54.5712 130.445 46.944C153.956 27.685 130.008 19.1095 130.008 19.1095C126.845 18.047 87.3384 9.28233 94.5303 5.97681C102.753 2.19771 154.107 4.71631 81.7719 19.59C78.656 20.2307 75.2899 14.0346 74.9794 22.2621" stroke="white" stroke-width="3" stroke-linecap="round"/>
</svg>
