<svg width="35" height="35" viewBox="0 0 35 35" fill="none" xmlns="http://www.w3.org/2000/svg">
<path d="M19.7408 0C13.8719 0 9.09717 4.81284 9.09717 10.7286C9.09717 16.6444 13.8719 21.4573 19.7408 21.4573C25.6097 21.4573 30.3845 16.6444 30.3845 10.7286C30.3845 4.81284 25.6097 0 19.7408 0V0ZM19.7408 19.4065C15.0027 19.4065 11.148 15.5137 11.148 10.7287C11.148 5.94364 15.0027 2.05078 19.7408 2.05078C24.4789 2.05078 28.3337 5.94364 28.3337 10.7286C28.3337 15.5136 24.4789 19.4065 19.7408 19.4065Z" fill="white"/>
<path d="M20.8361 9.74292C20.1022 9.48349 19.2924 9.17164 18.8504 8.82485C18.7778 8.76798 18.7234 8.58723 18.7654 8.36445C18.7861 8.25466 18.8819 7.88764 19.2455 7.77813C19.9312 7.57169 20.3957 7.84102 20.5635 7.96646C21.0171 8.30552 21.6596 8.21276 21.9988 7.75919C22.3378 7.30563 22.2451 6.66312 21.7915 6.32399C21.6218 6.19711 21.2167 5.93092 20.6377 5.77465V5.59213C20.6377 5.02584 20.1786 4.56674 19.6123 4.56674C19.0461 4.56674 18.587 5.02584 18.587 5.59213V5.83741C17.6435 6.14926 16.9423 6.96486 16.7501 7.98471C16.5679 8.95159 16.8877 9.8918 17.5848 10.4386C18.2584 10.967 19.217 11.3458 20.1526 11.6765C20.8237 11.9137 20.8439 12.4251 20.7963 12.7089C20.7149 13.193 20.3076 13.7161 19.6055 13.7208C18.8304 13.7263 18.6278 13.6942 18.0506 13.3166C17.5767 13.0065 16.9412 13.1394 16.6312 13.6134C16.3211 14.0873 16.454 14.7228 16.9279 15.0328C17.5588 15.4456 18.0382 15.6349 18.587 15.7163V15.9199C18.587 16.4862 19.0461 16.9453 19.6124 16.9453C20.1787 16.9453 20.6378 16.4862 20.6378 15.9199V15.6069C21.8584 15.2035 22.6388 14.1194 22.8187 13.0491C23.0659 11.5781 22.2691 10.2496 20.8361 9.74292Z" fill="white"/>
<path d="M33.6167 24.8523C31.6976 22.9331 28.5748 22.933 26.6558 24.8523L23.5791 27.9288H22.1201C22.7418 27.0895 23.1098 26.0512 23.1098 24.9288C23.1098 24.3625 22.6507 23.9034 22.0844 23.9034H18.6797C17.5671 23.9034 16.4985 23.3987 15.3672 22.8642C14.1807 22.3037 12.9537 21.7241 11.519 21.6287C10.2643 21.5451 9.00655 21.6825 7.7808 22.0365C6.47014 22.4149 5.5274 23.5783 5.41085 24.9223H2.10834C1.54205 24.9223 1.08295 25.3814 1.08295 25.9476V33.9746C1.08295 34.5409 1.54205 35 2.10834 35H23.0381C24.251 35 25.3914 34.5276 26.2492 33.6699L33.6168 26.3024C34.0172 25.9019 34.0172 25.2526 33.6167 24.8523ZM3.13373 26.973H5.39868V32.9492H3.13373V26.973ZM24.7991 32.2198C24.3287 32.6902 23.7033 32.9492 23.0381 32.9492H7.44939V25.1971C7.45096 24.6488 7.8212 24.1593 8.34968 24.0067C9.34595 23.719 10.3666 23.6072 11.3829 23.6749C12.4294 23.7445 13.4309 24.2176 14.4913 24.7185C15.7773 25.3261 17.107 25.9542 18.6797 25.9542H20.8786C20.4742 27.0629 19.4333 27.8677 18.2003 27.9252C18.1649 27.9215 12.9061 27.9195 12.9061 27.9195C12.3398 27.9195 11.8807 28.3786 11.8807 28.9449C11.8807 29.5112 12.3398 29.9703 12.9061 29.9703L24.0038 29.9796C24.2758 29.9796 24.5366 29.8716 24.7289 29.6793L28.1058 26.3024C28.6482 25.76 29.3692 25.4613 30.1362 25.4613C30.5471 25.4613 30.9447 25.5471 31.3089 25.71L24.7991 32.2198Z" fill="white"/>
</svg>
