<svg width="16" height="21" viewBox="0 0 16 21" fill="none" xmlns="http://www.w3.org/2000/svg">
<path d="M1.57088 5.88697C1.28438 3.99997 2.61488 2.30497 4.64738 1.68397C5.00806 1.57369 5.39722 1.60508 5.73556 1.77174C6.07391 1.93841 6.33598 2.2278 6.46838 2.58097L7.12088 4.32097C7.22592 4.60088 7.24491 4.90581 7.17542 5.1966C7.10593 5.48739 6.95112 5.75078 6.73088 5.95297L4.78988 7.73047C4.6942 7.81826 4.62291 7.92936 4.58295 8.05291C4.54299 8.17647 4.53573 8.30827 4.56188 8.43546L4.57988 8.51346L4.62638 8.70847C4.86777 9.65593 5.23557 10.5666 5.71988 11.416C6.24744 12.3185 6.90215 13.1404 7.66388 13.8565L7.72388 13.9105C7.82078 13.9965 7.93831 14.0559 8.06502 14.083C8.19172 14.1101 8.32328 14.1039 8.44688 14.065L10.9564 13.2745C11.2416 13.1849 11.547 13.1826 11.8335 13.2679C12.12 13.3531 12.3745 13.5221 12.5644 13.753L13.7524 15.1945C14.2474 15.7945 14.1874 16.6765 13.6189 17.206C12.0634 18.6565 9.92438 18.9535 8.43638 17.758C6.61242 16.2867 5.07481 14.4923 3.90038 12.4645C2.71641 10.4382 1.92557 8.20661 1.56938 5.88697H1.57088ZM6.13538 8.53446L7.74338 7.05847C8.18413 6.65427 8.49402 6.12757 8.63328 5.54598C8.77253 4.96439 8.73478 4.35445 8.52488 3.79447L7.87388 2.05447C7.60739 1.34384 7.07998 0.761556 6.3991 0.426274C5.71822 0.0909914 4.93513 0.0279392 4.20938 0.249965C1.68488 1.02247 -0.341624 3.28597 0.0873762 6.11347C0.387376 8.08747 1.07888 10.5985 2.60438 13.2205C3.87144 15.407 5.53006 17.3417 7.49738 18.928C9.72938 20.7205 12.7084 20.1085 14.6434 18.3055C15.197 17.7899 15.5331 17.0826 15.583 16.3277C15.6329 15.5728 15.3929 14.8274 14.9119 14.2435L13.7239 12.8005C13.3438 12.3392 12.8347 12.0019 12.2617 11.832C11.6887 11.662 11.078 11.667 10.5079 11.8465L8.42438 12.502C7.88643 11.9473 7.41523 11.3316 7.02038 10.6675C6.63896 9.99601 6.34172 9.28011 6.13538 8.53597V8.53446Z" fill="white"/>
</svg>
