<svg width="19" height="19" viewBox="0 0 19 19" fill="none" xmlns="http://www.w3.org/2000/svg">
<path d="M8 16C9.77498 15.9996 11.4988 15.4054 12.897 14.312L17.293 18.708L18.707 17.294L14.311 12.898C15.405 11.4997 15.9996 9.77544 16 8C16 3.589 12.411 0 8 0C3.589 0 0 3.589 0 8C0 12.411 3.589 16 8 16ZM8 2C11.309 2 14 4.691 14 8C14 11.309 11.309 14 8 14C4.691 14 2 11.309 2 8C2 4.691 4.691 2 8 2Z" fill="#F4F4F4"/>
<path d="M9.412 6.586C9.791 6.966 10 7.468 10 8H12C12.0009 7.47443 11.8976 6.95389 11.6961 6.46849C11.4946 5.98308 11.1988 5.54243 10.826 5.172C9.312 3.66 6.687 3.66 5.174 5.172L6.586 6.588C7.346 5.83 8.656 5.832 9.412 6.586Z" fill="#F4F4F4"/>
</svg>
