<svg width="186" height="65" viewBox="0 0 186 65" fill="none" xmlns="http://www.w3.org/2000/svg">
<path d="M0 0V24.402H4.31894V4.25723H61.6682V60.7428H29.9549C28.6901 62.3778 27.1476 63.8277 25.3892 65H66.018V0H0Z" fill="#666B7E"/>
<path d="M79.4068 40.5057C82.2758 40.5057 84.1884 38.4696 84.1884 35.7857C84.1884 33.0401 82.2758 31.0657 79.5919 31.0657H77.5249V40.5057H79.4068ZM74.5942 28.4435H79.4993C84.1885 28.4435 87.2117 31.4359 87.2117 35.7857C87.2117 40.0738 84.3427 43.0662 79.561 43.0662H74.5942V28.4435Z" fill="#666B7E"/>
<path d="M89.2476 37.0197V28.4435H92.2091V36.8346C92.2091 38.9324 93.2888 40.5057 95.2324 40.5057C97.0216 40.5057 98.3173 39.1483 98.3173 36.8346V28.4435H101.279V37.0197C101.279 40.8142 99.0577 43.2205 95.2324 43.2205C91.6847 43.2205 89.2476 40.9993 89.2476 37.0197Z" fill="#666B7E"/>
<path d="M116.797 28.4435L111.274 43.0662H108.683L103.192 28.4435H106.369L109.979 38.9632H110.01L113.619 28.4435H116.797Z" fill="#666B7E"/>
<path d="M118.802 28.4435H128.303V31.0349H121.701V34.5517H126.977V37.0814H121.701V40.5057H128.735V43.0662H118.802V28.4435Z" fill="#666B7E"/>
<path d="M143.45 28.4435V43.0662H140.458L133.918 33.3794H133.856V43.0662H130.926V28.4435H133.856L140.489 38.3462H140.52V28.4435H143.45Z" fill="#666B7E"/>
<path d="M146.289 28.4435H155.79V31.0349H149.188V34.5517H154.464V37.0814H149.188V40.5057H156.222V43.0662H146.289V28.4435Z" fill="#666B7E"/>
<path d="M157.333 35.7858C157.333 31.6211 160.048 28.2585 164.891 28.2585C166.927 28.2585 169.179 29.0915 170.814 31.0658L168.655 32.886C167.791 31.8679 166.433 31.035 164.891 31.035C162.33 31.035 160.387 32.886 160.387 35.8167C160.387 38.5314 162.238 40.475 164.891 40.475C166.433 40.475 167.791 39.7037 168.655 38.624L170.814 40.4441C169.549 42.0174 167.544 43.1897 164.891 43.1897C160.85 43.2206 157.333 40.6292 157.333 35.7858Z" fill="#666B7E"/>
<path d="M177.508 37.2048L176.028 38.9015V43.0662H173.128V28.4435H176.028V34.8911H176.058L181.21 28.4435H184.912L179.452 34.8911L185.097 43.0662H181.488L177.508 37.2048Z" fill="#666B7E"/>
<path d="M73.6689 58.584L75.4274 56.4554C76.5379 57.7202 77.957 58.2755 79.1293 58.2755C80.5484 58.2755 81.2579 57.6277 81.2579 56.733C81.2579 55.6533 80.4558 55.2831 78.6666 54.6661C76.4145 53.8949 74.1934 52.846 74.1934 50.1004C74.1934 47.7558 76.2911 45.9665 78.9442 45.9357C80.7952 45.9049 82.4919 46.5835 83.9418 47.7867L82.2451 49.977C81.0111 48.959 79.9314 48.5271 79.0059 48.5271C77.9879 48.5271 77.2166 49.0515 77.2166 49.977C77.1858 50.8716 78.0187 51.2727 79.7154 51.9205C82.276 52.9077 84.312 53.5555 84.312 56.3937C84.312 59.5712 81.5047 60.8669 79.0676 60.8669C77.1549 60.8669 75.2114 60.1573 73.6689 58.584Z" fill="#666B7E"/>
<path d="M96.1579 57.5347L94.8005 56.3316L96.3122 54.5115L97.7313 55.7763C98.0706 55.0668 98.2557 54.2955 98.2557 53.4626C98.2557 50.8095 96.4356 48.6809 93.7825 48.6809C91.1911 48.6809 89.2476 50.6861 89.2476 53.4626C89.2476 56.2082 91.1911 58.2443 93.7825 58.2443C94.708 58.1826 95.4792 57.9358 96.1579 57.5347ZM100.199 61.1441L98.3791 59.5091C97.1143 60.4037 95.5718 60.8973 93.8134 60.8973C89.3093 60.8973 86.2244 57.7507 86.2244 53.4317C86.2244 49.082 89.3093 45.9353 93.8134 45.9353C98.1631 45.9353 101.372 48.9586 101.372 53.4317C101.372 55.1285 100.909 56.6092 100.107 57.7815L101.773 59.2315L100.199 61.1441Z" fill="#666B7E"/>
<path d="M103.716 54.6649V46.0887H106.678V54.4798C106.678 56.5775 107.757 58.1509 109.701 58.1509C111.49 58.1509 112.786 56.7935 112.786 54.4798V46.0887H115.747V54.6649C115.747 58.4594 113.526 60.8656 109.701 60.8656C106.122 60.8656 103.716 58.6444 103.716 54.6649Z" fill="#666B7E"/>
<path d="M125.805 55.3127L123.83 49.5747H123.799L121.825 55.3127H125.805ZM126.668 57.7807H120.961L119.943 60.7114H116.858L122.349 46.0887H125.157L130.71 60.7114H127.625L126.668 57.7807Z" fill="#666B7E"/>
<path d="M135.615 53.1532H137.651C139.471 53.1532 140.458 52.2586 140.458 50.9012C140.458 49.5747 139.502 48.68 137.774 48.68H135.615V53.1532ZM140.643 60.7114L137.311 55.7138H135.584V60.7114H132.684V46.0887H138.298C141.877 46.0887 143.45 48.1556 143.45 50.9321C143.45 53.2766 142.309 54.7266 140.396 55.3436L144.067 60.6805H140.643V60.7114Z" fill="#666B7E"/>
<path d="M146.289 46.0887H155.79V48.68H149.188V52.1969H154.464V54.7574H149.188V58.1509H156.222V60.7114H146.289V46.0887Z" fill="#666B7E"/>
<path d="M10.9516 60.8972C19.898 60.8972 25.6668 54.9741 25.6668 46.7373C25.6668 38.3462 19.8054 32.4848 11.1367 32.4848H4.53489V60.8664H10.9516V60.8972ZM0 28.4435H11.1367C22.8904 28.4435 30.356 35.94 30.356 46.7682C30.356 57.5038 23.1063 64.9694 11.2909 64.9694H0V28.4435Z" fill="#666B7E"/>
</svg>
