<svg width="20" height="20" viewBox="0 0 20 20" fill="none" xmlns="http://www.w3.org/2000/svg">
<path d="M7 10L9 12M10 0.999999C9.39102 0.999198 8.79179 1.15289 8.25837 1.44671C7.72495 1.74053 7.27479 2.16486 6.95 2.68C6.6554 2.60892 6.35301 2.57532 6.05 2.58C5.13815 2.61387 4.27318 2.99274 3.63 3.64C3.20785 4.07042 2.90056 4.59996 2.73632 5.18004C2.57208 5.76012 2.55615 6.37216 2.69 6.96C2.17443 7.28269 1.74903 7.73075 1.4535 8.26236C1.15797 8.79396 1.00195 9.39178 1 10C1.00026 10.6099 1.15548 11.2098 1.45109 11.7433C1.7467 12.2768 2.173 12.7264 2.69 13.05C2.55742 13.6387 2.57494 14.2512 2.74094 14.8313C2.90694 15.4115 3.2161 15.9406 3.64 16.37C4.07146 16.8005 4.60517 17.1145 5.1911 17.2824C5.77703 17.4503 6.396 17.4667 6.99 17.33C7.31234 17.8376 7.75668 18.2564 8.28247 18.5481C8.80825 18.8398 9.39873 18.9952 10 19C10.6064 19.0002 11.2029 18.8472 11.7344 18.5553C12.2658 18.2633 12.7149 17.8419 13.04 17.33C13.632 17.4626 14.2479 17.4435 14.8306 17.2744C15.4132 17.1053 15.9437 16.7917 16.3727 16.3627C16.8017 15.9337 17.1153 15.4032 17.2844 14.8206C17.4535 14.2379 17.4726 13.622 17.34 13.03C17.8486 12.7047 18.2672 12.2566 18.5572 11.7271C18.8473 11.1977 18.9996 10.6037 19 10C19.0002 9.39364 18.8472 8.79706 18.5553 8.26562C18.2633 7.73417 17.8419 7.28507 17.33 6.96V6.96C17.4626 6.36799 17.4435 5.75205 17.2744 5.16941C17.1053 4.58677 16.7917 4.05631 16.3627 3.62732C15.9337 3.19832 15.4032 2.8847 14.8206 2.71559C14.2379 2.54648 13.622 2.52735 13.03 2.66C12.7047 2.15143 12.2566 1.73284 11.7271 1.44277C11.1977 1.15269 10.6037 1.00043 10 0.999999V0.999999ZM13 8L9 12L13 8Z" stroke="white" stroke-width="2" stroke-linecap="round" stroke-linejoin="round"/>
</svg>
