<svg width="25" height="18" viewBox="0 0 25 18" fill="none" xmlns="http://www.w3.org/2000/svg">
<path d="M24.4979 3.50695C24.362 3.02219 24.0973 2.5833 23.7319 2.23695C23.3562 1.87996 22.8957 1.62459 22.3939 1.49495C20.5159 0.999954 12.9919 0.999954 12.9919 0.999954C9.85526 0.964267 6.71936 1.12123 3.60193 1.46995C3.10012 1.60917 2.64049 1.87024 2.26393 2.22995C1.89393 2.58595 1.62593 3.02495 1.48593 3.50595C1.14962 5.3177 0.986224 7.1573 0.997932 8.99995C0.985932 10.841 1.14893 12.68 1.48593 14.494C1.62293 14.973 1.88993 15.41 2.26093 15.763C2.63193 16.116 3.09393 16.371 3.60193 16.506C5.50493 17 12.9919 17 12.9919 17C16.1326 17.0357 19.2725 16.8787 22.3939 16.53C22.8957 16.4003 23.3562 16.145 23.7319 15.788C24.0972 15.4417 24.3616 15.0027 24.4969 14.518C24.842 12.7069 25.0098 10.8665 24.9979 9.02295C25.0239 7.17156 24.8563 5.32252 24.4979 3.50595V3.50695ZM10.5999 12.424V5.57695L16.8599 9.00095L10.5999 12.424Z" fill="white"/>
</svg>
